<svg xmlns="http://www.w3.org/2000/svg" xmlns:xlink="http://www.w3.org/1999/xlink" width="2592" height="1385" viewBox="0 0 2592 1385"><defs><linearGradient id="a" x1="0.588" y1="0.817" x2="0.253" y2="-0.107" gradientUnits="objectBoundingBox"><stop offset="0" stop-color="#ff3200"/><stop offset="0.062" stop-color="#ff3602"/><stop offset="0.363" stop-color="#ff490b"/><stop offset="0.672" stop-color="#ff5510"/><stop offset="1" stop-color="#ff5912"/></linearGradient><linearGradient id="b" x1="0.442" y1="0.452" x2="0.063" y2="-0.083" gradientUnits="objectBoundingBox"><stop offset="0" stop-color="#ff5912"/><stop offset="0.328" stop-color="#ff5510"/><stop offset="0.637" stop-color="#ff490b"/><stop offset="0.938" stop-color="#ff3602"/><stop offset="1" stop-color="#ff3200"/></linearGradient><radialGradient id="c" cx="0.5" cy="0.5" r="1.632" gradientTransform="matrix(-0.224, 0.005, 0, 0.28, 0.612, 0.192)" gradientUnits="objectBoundingBox"><stop offset="0" stop-color="#1d1d1b"/><stop offset="0.279" stop-color="#1d1d1b" stop-opacity="0.455"/><stop offset="0.6" stop-color="#1d1d1b" stop-opacity="0.11"/><stop offset="1" stop-color="#1d1d1b" stop-opacity="0"/></radialGradient><radialGradient id="d" cx="0.5" cy="0.5" r="0.549" gradientTransform="matrix(-0.801, -0.526, -0.433, 0.743, 0.932, 0.255)" xlink:href="#c"/><linearGradient id="e" x1="0.006" y1="0.133" x2="1.771" y2="1.444" gradientUnits="objectBoundingBox"><stop offset="0" stop-color="#4ad0a1"/><stop offset="0.23" stop-color="#45bf98"/><stop offset="0.681" stop-color="#389481"/><stop offset="1" stop-color="#2e7270"/></linearGradient><linearGradient id="f" x1="1" y1="0.5" x2="0" y2="0.5" xlink:href="#e"/><radialGradient id="g" cx="0.5" cy="0.5" r="0.549" gradientTransform="matrix(-0.801, -0.526, -0.433, 0.743, 1.078, 0.553)" xlink:href="#c"/><linearGradient id="h" x1="-0.298" y1="-0.969" x2="1.574" y2="2.478" gradientUnits="objectBoundingBox"><stop offset="0" stop-color="#f7cf00"/><stop offset="1" stop-color="#f7ae00"/></linearGradient><linearGradient id="i" x1="0.927" y1="1.41" x2="0.858" y2="1.262" xlink:href="#h"/><clipPath id="k"><rect width="2592" height="1385"/></clipPath></defs><g id="j" clip-path="url(#k)"><rect width="2592" height="1385" fill="#fff"/><g transform="translate(1650.691 231.49)"><g transform="translate(-159.952 449.067)"><g transform="translate(0)" style="isolation:isolate"><g transform="translate(0 22.204)"><path d="M556.285,412.773,418.926,758.194l319.164,159,137.36-345.415Z" transform="translate(-418.926 -412.773)" fill="url(#a)"/></g><g transform="translate(319.164 159.004)"><path d="M357.334,831.955l163.414-22.2L658.1,464.336l-163.409,22.2Z" transform="translate(-357.334 -464.336)" fill="#dd0b00"/></g><g transform="translate(137.36)"><path d="M676.5,585.613l163.409-22.2-319.159-159-163.414,22.2Z" transform="translate(-357.334 -404.404)" fill="url(#b)"/></g></g></g><path d="M331.324,654.941c0,44.471,161.109,80.521,359.847,80.521s359.847-36.05,359.847-80.521-161.109-80.514-359.847-80.514S331.324,610.478,331.324,654.941Z" transform="translate(-535.031 341.727)" opacity="0.5" fill="url(#c)" style="mix-blend-mode:multiply;isolation:isolate"/><path d="M332.048,432.579c-35.761,57.82-11.113,137.857,55.038,178.78S535.872,638.6,571.629,580.776,582.743,442.921,516.589,402,367.809,374.771,332.048,432.579Z" transform="translate(-57.42 53.297)" opacity="0.6" fill="url(#d)"/><g transform="translate(336.185 264.132)"><g transform="translate(0 0)" style="isolation:isolate"><g transform="translate(77.358 37.873)"><path d="M224.229,354.643l36.22,252.386L506.512,559.04l-36.22-252.39Z" transform="translate(-224.229 -306.65)" fill="url(#e)"/></g><g transform="translate(0 47.99)"><path d="M437.735,350.124l-77.358-37.876L396.6,564.634l77.358,37.876Z" transform="translate(-360.377 -312.248)" fill="#258d6e"/></g><g transform="translate(0)"><path d="M567.691,323.568l-77.355-37.873L244.27,333.685l77.358,37.876Z" transform="translate(-244.27 -285.694)" fill="url(#f)"/></g></g></g><path d="M312.84,279.932c-32.449,52.467-10.081,125.1,49.945,162.23S497.8,466.876,530.246,414.41,540.329,289.318,480.3,252.183,345.291,227.478,312.84,279.932Z" transform="translate(35.84 -63.851)" opacity="0.6" fill="url(#g)"/><g transform="translate(169.14 -13.277)"><g transform="translate(0)" style="isolation:isolate"><path d="M438.8,120.9,388.344,348.046l213.131,32.436,50.462-227.144Z" transform="translate(-388.344 -120.902)" fill="url(#h)"/><g transform="translate(0 227.144)"><path d="M363.949,259.4l90.47,55.226L667.55,347.065l-90.47-55.226Z" transform="translate(-363.949 -259.403)" fill="url(#i)"/></g><g transform="translate(213.131 32.436)"><path d="M333.18,367.824l90.47,55.226,50.462-227.143-90.47-55.227Z" transform="translate(-333.18 -140.68)" fill="#f77b00"/></g></g></g></g></g></svg>