<svg xmlns="http://www.w3.org/2000/svg" width="185" height="185" viewBox="0 0 185 185"><g transform="translate(-733 -597)"><g transform="translate(24 5)"><rect width="185" height="185" transform="translate(709 592)" fill="#fff"/></g><g transform="translate(112 453)"><g transform="translate(673 191)"><path d="M136.462,6.823H175.94v9.26a1.462,1.462,0,1,0,2.924,0V1.462a1.462,1.462,0,1,0-2.924,0V3.9H136.462a1.462,1.462,0,1,0,0,2.924Z" transform="translate(-113.726 0)" fill="#f9a66e"/><path d="M104.153,3.883H94.441a1.456,1.456,0,1,0,0,2.912H102.7V25.238H27.914V6.795H40.539v9.221a1.457,1.457,0,0,0,2.914,0V1.456a1.457,1.457,0,0,0-2.914,0V3.883H26.457A1.456,1.456,0,0,0,25,5.339v71.83a1.456,1.456,0,0,0,1.457,1.456h64.1a1.452,1.452,0,0,0,.145-.007c.036,0,.071-.01.107-.016l.035-.005c.042-.008.082-.019.122-.031l.016,0c.04-.012.08-.027.118-.042l.016-.006c.037-.015.072-.033.107-.051l.022-.011c.032-.017.063-.036.093-.056l.029-.018c.028-.019.055-.04.082-.061l.032-.024c.033-.027.064-.056.094-.085l.011-.01,13.6-13.589.008-.009c.03-.031.06-.063.088-.1l.021-.028c.022-.028.044-.057.064-.087.005-.008.01-.017.015-.025.021-.032.041-.064.058-.1,0-.006.006-.012.009-.018.019-.036.036-.073.052-.11l0-.013c.016-.04.031-.08.043-.121,0,0,0-.01,0-.015.012-.04.023-.081.031-.123,0-.012,0-.024.005-.036.006-.035.012-.07.016-.106a1.452,1.452,0,0,0,.007-.145V5.339A1.457,1.457,0,0,0,104.153,3.883ZM27.914,28.15H102.7V62.123H90.556A1.456,1.456,0,0,0,89.1,63.579V75.713H27.914Zm72.722,36.886-8.623,8.618V65.035Z" transform="translate(-25 0)" fill="#f9a66e"/><path d="M104.153,450h-77.7a1.462,1.462,0,0,0,0,2.924h77.7a1.462,1.462,0,0,0,0-2.924Z" transform="translate(-25 -362.602)" fill="#f9a66e"/><path d="M104.153,350a1.459,1.459,0,0,0-1.457,1.462v12.185H27.914v-.487a1.457,1.457,0,1,0-2.914,0v1.95a1.459,1.459,0,0,0,1.457,1.462h77.7a1.459,1.459,0,0,0,1.457-1.462V351.462A1.459,1.459,0,0,0,104.153,350Z" transform="translate(-25 -282.098)" fill="#f9a66e"/></g><path d="M13.12-35.755H11.333v-3.336q0-1.274-.93-1.274a.853.853,0,0,0-.72.383,1.58,1.58,0,0,0-.278.954v3.273H7.612v-3.37q0-1.239-.913-1.239A.873.873,0,0,0,5.964-40a1.616,1.616,0,0,0-.275.994v3.25H3.9V-41.6H5.689v.914h.023a2.15,2.15,0,0,1,.78-.762,2.133,2.133,0,0,1,1.1-.294,1.672,1.672,0,0,1,1.685,1.091,2.146,2.146,0,0,1,1.951-1.091q1.895,0,1.895,2.353Zm4.187.143a3.11,3.11,0,0,1-2.283-.82,2.983,2.983,0,0,1-.831-2.225,2.982,2.982,0,0,1,.862-2.27,3.245,3.245,0,0,1,2.332-.82,3.073,3.073,0,0,1,2.269.82,2.924,2.924,0,0,1,.823,2.168,3.1,3.1,0,0,1-.848,2.3A3.145,3.145,0,0,1,17.307-35.613Zm.045-4.752a1.192,1.192,0,0,0-.987.44,1.949,1.949,0,0,0-.352,1.245q0,1.685,1.35,1.685,1.288,0,1.288-1.731Q18.651-40.365,17.352-40.365Zm9.9,4.609H25.464v-3.25q0-1.359-.964-1.359a.954.954,0,0,0-.766.36,1.377,1.377,0,0,0-.3.914v3.336H21.641V-41.6h1.793v.925h.023a2.052,2.052,0,0,1,1.866-1.068q1.929,0,1.929,2.41Zm4.93-.069a2.634,2.634,0,0,1-1.2.211q-1.895,0-1.895-1.982v-2.679h-.942V-41.6h.942v-1.262l1.787-.514V-41.6h1.3v1.331h-1.3v2.365q0,.914.72.914a1.208,1.208,0,0,0,.584-.166Zm6.586.069H36.98V-39.08q0-1.285-.93-1.285a.95.95,0,0,0-.771.36,1.394,1.394,0,0,0-.295.914v3.336H33.191v-8.659h1.793v3.678h.023a2.034,2.034,0,0,1,1.787-1.011q1.974,0,1.974,2.4Zm1.038-.154v-1.462a3.8,3.8,0,0,0,.882.4,2.906,2.906,0,0,0,.831.131,1.772,1.772,0,0,0,.752-.131.424.424,0,0,0,.275-.4.371.371,0,0,0-.125-.286,1.159,1.159,0,0,0-.321-.2,3.621,3.621,0,0,0-.428-.154q-.233-.069-.448-.154a4.28,4.28,0,0,1-.61-.283,1.765,1.765,0,0,1-.442-.351,1.383,1.383,0,0,1-.272-.463,1.858,1.858,0,0,1-.094-.623,1.611,1.611,0,0,1,.213-.845,1.744,1.744,0,0,1,.567-.58,2.582,2.582,0,0,1,.811-.331,4.2,4.2,0,0,1,.95-.106,5.237,5.237,0,0,1,.783.06,5.81,5.81,0,0,1,.783.174v1.394a2.818,2.818,0,0,0-.729-.3,3.055,3.055,0,0,0-.763-.1,1.679,1.679,0,0,0-.332.031,1.088,1.088,0,0,0-.275.091.506.506,0,0,0-.187.154.357.357,0,0,0-.068.214.4.4,0,0,0,.1.274.887.887,0,0,0,.267.2,2.622,2.622,0,0,0,.366.148q.2.066.4.134a5.181,5.181,0,0,1,.647.274,2.068,2.068,0,0,1,.5.348,1.369,1.369,0,0,1,.318.468,1.675,1.675,0,0,1,.111.64,1.677,1.677,0,0,1-.224.888,1.8,1.8,0,0,1-.6.6,2.69,2.69,0,0,1-.857.337,4.718,4.718,0,0,1-1.007.106A5.159,5.159,0,0,1,39.805-35.91Zm6.291.3a1.042,1.042,0,0,1-.737-.274.884.884,0,0,1-.295-.674.851.851,0,0,1,.3-.674,1.116,1.116,0,0,1,.757-.263,1.074,1.074,0,0,1,.752.266.868.868,0,0,1,.292.671.873.873,0,0,1-.3.683A1.12,1.12,0,0,1,46.1-35.613Z" transform="translate(687.994 279.215)" fill="#f9a66e"/></g></g></svg>