<svg xmlns="http://www.w3.org/2000/svg" width="251.062" height="281.31" viewBox="0 0 251.062 281.31"><g transform="translate(-673 -191)"><g transform="translate(673 191)"><path d="M139.537,21.174H262.043V49.91a4.537,4.537,0,0,0,9.075,0V4.537a4.537,4.537,0,0,0-9.075,0V12.1H139.537a4.537,4.537,0,1,0,0,9.075Z" transform="translate(-68.454)" fill="#f9a66e"/><path d="M271.524,12.1H241.276a4.537,4.537,0,1,0,0,9.075h25.711V78.646H34.075V21.174H73.4V49.91a4.537,4.537,0,0,0,9.075,0V4.537a4.537,4.537,0,0,0-9.075,0V12.1H29.537A4.537,4.537,0,0,0,25,16.637V240.475a4.537,4.537,0,0,0,4.537,4.537H229.177a4.519,4.519,0,0,0,.453-.023c.113-.012.223-.03.332-.05.036-.006.072-.009.108-.016.129-.026.256-.06.381-.1l.048-.013c.126-.038.248-.083.368-.132l.049-.018c.114-.048.224-.1.334-.158.022-.012.046-.021.068-.033.1-.053.2-.113.29-.174.03-.019.062-.036.091-.056.088-.059.172-.124.256-.189.033-.026.068-.049.1-.076.1-.084.2-.174.294-.266.011-.012.024-.02.034-.031l42.348-42.348.025-.028c.095-.1.186-.2.273-.3.024-.028.043-.059.066-.088.069-.088.137-.177.2-.27.017-.025.03-.051.047-.077.064-.1.126-.2.182-.3.01-.018.018-.038.027-.057.058-.113.114-.227.163-.344.005-.013.009-.027.015-.04.05-.123.1-.249.135-.377,0-.015.007-.031.012-.047.037-.126.07-.253.1-.382.007-.037.01-.074.017-.111.019-.109.038-.218.049-.33a4.523,4.523,0,0,0,.023-.453V16.637A4.538,4.538,0,0,0,271.524,12.1ZM34.075,87.72H266.987V193.59H229.177a4.537,4.537,0,0,0-4.537,4.537v37.811H34.075Zm226.5,114.944-26.857,26.857V202.664Z" transform="translate(-25)" fill="#f9a66e"/><path d="M271.524,450H29.537a4.537,4.537,0,0,0,0,9.075H271.524a4.537,4.537,0,1,0,0-9.075Z" transform="translate(-25 -177.764)" fill="#f9a66e"/><path d="M271.524,350a4.537,4.537,0,0,0-4.537,4.537v37.811H34.075v-1.512a4.537,4.537,0,0,0-9.075,0v6.05a4.537,4.537,0,0,0,4.537,4.537H271.524a4.537,4.537,0,0,0,4.537-4.537V354.537A4.537,4.537,0,0,0,271.524,350Z" transform="translate(-25 -138.261)" fill="#f9a66e"/></g><path d="M32.715-17.545H27.132V-27.9q0-3.952-2.907-3.952a2.671,2.671,0,0,0-2.251,1.187,4.88,4.88,0,0,0-.868,2.96v10.156h-5.6V-28q0-3.846-2.854-3.846a2.735,2.735,0,0,0-2.3,1.134A4.991,4.991,0,0,0,9.5-27.63v10.085H3.9V-35.694H9.5v2.836h.071a6.7,6.7,0,0,1,2.437-2.366,6.7,6.7,0,0,1,3.43-.913A5.226,5.226,0,0,1,20.7-32.752a6.713,6.713,0,0,1,6.1-3.385q5.92,0,5.92,7.3ZM45.8-17.1a9.756,9.756,0,0,1-7.134-2.543,9.221,9.221,0,0,1-2.6-6.9,9.221,9.221,0,0,1,2.694-7.045,10.179,10.179,0,0,1,7.284-2.543,9.638,9.638,0,0,1,7.089,2.543,9.041,9.041,0,0,1,2.57,6.726,9.6,9.6,0,0,1-2.65,7.143A9.864,9.864,0,0,1,45.8-17.1Zm.142-14.746a3.736,3.736,0,0,0-3.084,1.365,6.018,6.018,0,0,0-1.1,3.864q0,5.228,4.218,5.228,4.023,0,4.023-5.37Q50-31.848,45.937-31.848Zm30.928,14.3H71.282V-27.63q0-4.218-3.013-4.218a2.99,2.99,0,0,0-2.393,1.117,4.254,4.254,0,0,0-.939,2.836v10.351h-5.6V-35.694h5.6v2.871h.071a6.418,6.418,0,0,1,5.831-3.314q6.026,0,6.026,7.479Zm15.4-.213a8.278,8.278,0,0,1-3.74.656q-5.92,0-5.92-6.15v-8.312H79.665v-4.13h2.942v-3.917l5.583-1.6v5.512h4.076v4.13H88.19v7.338q0,2.836,2.251,2.836a3.8,3.8,0,0,0,1.826-.514Zm20.577.213h-5.583V-27.86q0-3.988-2.907-3.988a2.976,2.976,0,0,0-2.41,1.117,4.307,4.307,0,0,0-.922,2.836v10.351h-5.6V-44.414h5.6V-33h.071a6.364,6.364,0,0,1,5.583-3.137q6.168,0,6.168,7.444Zm3.243-.479v-4.537a11.924,11.924,0,0,0,2.756,1.241,9.138,9.138,0,0,0,2.6.408,5.569,5.569,0,0,0,2.348-.408,1.317,1.317,0,0,0,.86-1.241,1.148,1.148,0,0,0-.39-.886,3.625,3.625,0,0,0-1-.62,11.363,11.363,0,0,0-1.338-.479q-.727-.213-1.4-.479a13.415,13.415,0,0,1-1.905-.877,5.507,5.507,0,0,1-1.382-1.09,4.284,4.284,0,0,1-.851-1.436,5.729,5.729,0,0,1-.292-1.932,4.973,4.973,0,0,1,.665-2.623,5.429,5.429,0,0,1,1.772-1.8,8.1,8.1,0,0,1,2.534-1.028,13.215,13.215,0,0,1,2.969-.328,16.473,16.473,0,0,1,2.446.186,18.256,18.256,0,0,1,2.446.541v4.325a8.838,8.838,0,0,0-2.277-.93,9.607,9.607,0,0,0-2.384-.31,5.282,5.282,0,0,0-1.037.1,3.415,3.415,0,0,0-.86.284,1.579,1.579,0,0,0-.585.479,1.1,1.1,0,0,0-.213.665,1.228,1.228,0,0,0,.319.851,2.771,2.771,0,0,0,.833.611,8.223,8.223,0,0,0,1.143.461q.629.2,1.25.417a16.246,16.246,0,0,1,2.021.851,6.46,6.46,0,0,1,1.551,1.081,4.246,4.246,0,0,1,.993,1.453,5.166,5.166,0,0,1,.346,1.985,5.178,5.178,0,0,1-.7,2.756,5.605,5.605,0,0,1-1.861,1.861,8.44,8.44,0,0,1-2.676,1.046,14.837,14.837,0,0,1-3.146.328A16.218,16.218,0,0,1,116.087-18.024Zm19.656.922a3.267,3.267,0,0,1-2.3-.851,2.735,2.735,0,0,1-.922-2.091,2.633,2.633,0,0,1,.948-2.091,3.5,3.5,0,0,1,2.366-.815,3.37,3.37,0,0,1,2.348.824,2.685,2.685,0,0,1,.913,2.083,2.7,2.7,0,0,1-.93,2.118A3.513,3.513,0,0,1,135.743-17.1Z" transform="translate(727.723 371.886)" fill="#f9a66e"/></g></svg>