<svg xmlns="http://www.w3.org/2000/svg" width="185" height="185" viewBox="0 0 185 185"><g transform="translate(-733 -597)"><g transform="translate(24 5)"><rect width="185" height="185" transform="translate(709 592)" fill="#fff"/></g><g transform="translate(-445 453)"><g transform="translate(1230 191)"><path d="M136.464,6.831h39.524V16.1a1.464,1.464,0,1,0,2.928,0V1.464a1.464,1.464,0,1,0-2.928,0V3.9H136.464a1.464,1.464,0,0,0,0,2.928Z" transform="translate(-113.53)" fill="#f9a66e"/><path d="M104.536,3.9H94.777a1.464,1.464,0,0,0,0,2.928h8.3V25.373H27.928V6.831H40.614V16.1a1.464,1.464,0,0,0,2.928,0V1.464a1.464,1.464,0,0,0-2.928,0V3.9H26.464A1.464,1.464,0,0,0,25,5.367V77.584a1.464,1.464,0,0,0,1.464,1.464H90.873a1.459,1.459,0,0,0,.146-.007c.036,0,.072-.01.107-.016l.035-.005c.042-.008.083-.019.123-.031l.016,0c.041-.012.08-.027.119-.043l.016-.006c.037-.015.072-.033.108-.051l.022-.011c.032-.017.063-.036.094-.056l.029-.018c.028-.019.056-.04.083-.061l.033-.024c.033-.027.064-.056.095-.086l.011-.01,13.663-13.663.008-.009c.031-.031.06-.063.088-.1l.021-.028c.022-.028.044-.057.064-.087.005-.008.01-.017.015-.025.021-.032.041-.065.059-.1,0-.006.006-.012.009-.018.019-.036.037-.073.052-.111l0-.013c.016-.04.031-.08.044-.122,0,0,0-.01,0-.015.012-.041.023-.082.031-.123,0-.012,0-.024.005-.036.006-.035.012-.07.016-.106a1.457,1.457,0,0,0,.007-.146V5.367A1.464,1.464,0,0,0,104.536,3.9ZM27.928,28.3h75.144V62.457h-12.2a1.464,1.464,0,0,0-1.464,1.464v12.2H27.928ZM101,65.385,92.337,74.05V65.385Z" transform="translate(-25)" fill="#f9a66e"/><path d="M104.536,450H26.464a1.464,1.464,0,1,0,0,2.928h78.072a1.464,1.464,0,1,0,0-2.928Z" transform="translate(-25 -362.169)" fill="#f9a66e"/><path d="M104.536,350a1.464,1.464,0,0,0-1.464,1.464v12.2H27.928v-.488a1.464,1.464,0,1,0-2.928,0v1.952a1.464,1.464,0,0,0,1.464,1.464h78.072A1.464,1.464,0,0,0,106,365.126V351.464A1.464,1.464,0,0,0,104.536,350Z" transform="translate(-25 -281.687)" fill="#f9a66e"/><path d="M9.618-41.6,7.931-35.745h-1.9l-.863-3.431a3.493,3.493,0,0,1-.1-.749H5.038a4.482,4.482,0,0,1-.114.726L4-35.745H2.121L.469-41.6H2.31l.806,3.82a4.966,4.966,0,0,1,.086.652h.034a3.61,3.61,0,0,1,.1-.675l1.006-3.8H6.067l.9,3.82a6.074,6.074,0,0,1,.08.663h.04a6.6,6.6,0,0,1,.091-.663l.761-3.82Zm6.061,3.442h-3.82q.091,1.275,1.607,1.275a3.137,3.137,0,0,0,1.7-.457v1.3a4.461,4.461,0,0,1-2.11.435,2.97,2.97,0,0,1-2.2-.786,2.97,2.97,0,0,1-.783-2.193,3.134,3.134,0,0,1,.846-2.31A2.819,2.819,0,0,1,13-41.744a2.559,2.559,0,0,1,1.981.761,2.929,2.929,0,0,1,.7,2.064ZM14-39.268q0-1.258-1.018-1.258a.972.972,0,0,0-.752.36,1.635,1.635,0,0,0-.386.9Zm8.011,1.109h-3.82q.091,1.275,1.607,1.275a3.137,3.137,0,0,0,1.7-.457v1.3a4.462,4.462,0,0,1-2.11.435,2.97,2.97,0,0,1-2.2-.786,2.97,2.97,0,0,1-.783-2.193,3.134,3.134,0,0,1,.846-2.31,2.819,2.819,0,0,1,2.081-.852,2.559,2.559,0,0,1,1.981.761,2.929,2.929,0,0,1,.7,2.064Zm-1.675-1.109q0-1.258-1.018-1.258a.972.972,0,0,0-.752.36,1.635,1.635,0,0,0-.386.9Zm8.617,3.522H26.789l-1.87-2.9H24.9v2.9H23.09v-8.669H24.9V-38.9h.023l1.744-2.7h2.144l-2.1,2.75Zm.3-.154v-1.464a3.847,3.847,0,0,0,.889.4,2.948,2.948,0,0,0,.838.132,1.8,1.8,0,0,0,.758-.132.425.425,0,0,0,.277-.4.37.37,0,0,0-.126-.286,1.169,1.169,0,0,0-.323-.2A3.666,3.666,0,0,0,31.135-38q-.234-.069-.452-.154a4.328,4.328,0,0,1-.615-.283,1.777,1.777,0,0,1-.446-.352,1.382,1.382,0,0,1-.274-.463,1.848,1.848,0,0,1-.094-.623,1.6,1.6,0,0,1,.214-.846,1.752,1.752,0,0,1,.572-.58,2.613,2.613,0,0,1,.818-.332,4.263,4.263,0,0,1,.958-.106,5.314,5.314,0,0,1,.789.06,5.891,5.891,0,0,1,.789.174v1.4a2.851,2.851,0,0,0-.735-.3,3.1,3.1,0,0,0-.769-.1,1.7,1.7,0,0,0-.335.031,1.1,1.1,0,0,0-.277.091.509.509,0,0,0-.189.154.355.355,0,0,0-.069.214.4.4,0,0,0,.1.274.894.894,0,0,0,.269.2,2.653,2.653,0,0,0,.369.149q.2.066.4.134a5.242,5.242,0,0,1,.652.274,2.084,2.084,0,0,1,.5.349,1.37,1.37,0,0,1,.32.469,1.666,1.666,0,0,1,.112.64,1.671,1.671,0,0,1-.226.889,1.808,1.808,0,0,1-.6.6,2.723,2.723,0,0,1-.863.337,4.787,4.787,0,0,1-1.015.106A5.232,5.232,0,0,1,29.254-35.9Zm6.341.3a1.054,1.054,0,0,1-.743-.274.882.882,0,0,1-.3-.675.85.85,0,0,1,.306-.675,1.13,1.13,0,0,1,.763-.263,1.087,1.087,0,0,1,.758.266.866.866,0,0,1,.294.672.871.871,0,0,1-.3.683A1.133,1.133,0,0,1,35.6-35.6Z" transform="translate(21.678 88.444)" fill="#f9a66e"/></g></g></g></svg>