<svg xmlns="http://www.w3.org/2000/svg" width="107.087" height="119.989" viewBox="0 0 107.087 119.989"><g transform="translate(-103 -191)"><g transform="translate(103 191)"><path d="M136.935,9.031h52.253V21.288a1.935,1.935,0,1,0,3.871,0V1.935a1.935,1.935,0,1,0-3.871,0V5.161H136.935a1.935,1.935,0,0,0,0,3.871Z" transform="translate(-106.615)" fill="#f9a66e"/><path d="M130.152,5.161h-12.9a1.935,1.935,0,1,0,0,3.871h10.967V33.545H28.871V9.031H45.643V21.288a1.935,1.935,0,1,0,3.871,0V1.935a1.935,1.935,0,1,0-3.871,0V5.161H26.935A1.935,1.935,0,0,0,25,7.1v95.475a1.935,1.935,0,0,0,1.935,1.935h85.154a1.928,1.928,0,0,0,.193-.01c.048,0,.095-.013.142-.021l.046-.007c.055-.011.109-.026.163-.041l.021-.005c.054-.016.106-.036.157-.056l.021-.007c.049-.02.1-.043.142-.067l.029-.014c.043-.023.083-.048.124-.074l.039-.024c.038-.025.074-.053.109-.081l.043-.032c.044-.036.085-.074.125-.113l.015-.013,18.063-18.063.011-.012c.041-.041.079-.084.116-.129.01-.012.018-.025.028-.037.029-.038.059-.075.085-.115.007-.011.013-.022.02-.033.027-.042.054-.085.078-.13,0-.008.007-.016.012-.024.025-.048.049-.1.069-.147l.006-.017c.021-.053.041-.106.058-.161,0-.006,0-.013.005-.02.016-.054.03-.108.041-.163,0-.016,0-.031.007-.047.008-.047.016-.093.021-.141a1.926,1.926,0,0,0,.01-.193V7.1A1.936,1.936,0,0,0,130.152,5.161ZM28.871,37.416h99.346V82.573H112.089a1.935,1.935,0,0,0-1.935,1.935v16.128H28.871ZM125.48,86.444,114.024,97.9V86.444Z" transform="translate(-25)" fill="#f9a66e"/><path d="M130.152,450H26.935a1.935,1.935,0,1,0,0,3.871H130.152a1.935,1.935,0,1,0,0-3.871Z" transform="translate(-25 -333.881)" fill="#f9a66e"/><path d="M130.152,350a1.935,1.935,0,0,0-1.935,1.935v16.128H28.871v-.645a1.935,1.935,0,0,0-3.871,0V370a1.935,1.935,0,0,0,1.935,1.935H130.152A1.935,1.935,0,0,0,132.087,370V351.935A1.935,1.935,0,0,0,130.152,350Z" transform="translate(-25 -259.685)" fill="#f9a66e"/></g><path d="M10.145-32.953H7.757v-1.066h-.03a2.679,2.679,0,0,1-2.4,1.255,2.935,2.935,0,0,1-2.336-1.024,4.24,4.24,0,0,1-.884-2.861,4.615,4.615,0,0,1,.975-3.077A3.181,3.181,0,0,1,5.64-40.884,2.174,2.174,0,0,1,7.726-39.81h.03v-4.6h2.389ZM7.8-36.718V-37.3a1.832,1.832,0,0,0-.438-1.255,1.448,1.448,0,0,0-1.142-.5,1.439,1.439,0,0,0-1.24.624,2.9,2.9,0,0,0-.446,1.712,2.506,2.506,0,0,0,.431,1.572,1.431,1.431,0,0,0,1.194.552,1.437,1.437,0,0,0,1.183-.582A2.426,2.426,0,0,0,7.8-36.718Zm10.8,3.765h-2.26v-1.111h-.03A2.523,2.523,0,0,1,14-32.764a2.412,2.412,0,0,1-1.773-.639,2.289,2.289,0,0,1-.646-1.7q0-2.253,2.669-2.6l2.1-.28q0-1.27-1.376-1.27a4.7,4.7,0,0,0-2.631.824v-1.8a5.918,5.918,0,0,1,1.365-.454,7.173,7.173,0,0,1,1.576-.2q3.311,0,3.311,3.3ZM16.352-36.1v-.522l-1.406.181q-1.164.151-1.164,1.051a.868.868,0,0,0,.283.669,1.089,1.089,0,0,0,.767.261,1.414,1.414,0,0,0,1.1-.465A1.679,1.679,0,0,0,16.352-36.1Zm11.506-4.6-3.145,8.361q-1.134,3.016-3.417,3.016a4.378,4.378,0,0,1-1.429-.2v-1.905a2.009,2.009,0,0,0,1.036.28,1.294,1.294,0,0,0,1.285-.869l.408-.96-3.145-7.726H22.1l1.444,4.71a6.121,6.121,0,0,1,.212,1.036h.03a7.221,7.221,0,0,1,.249-1.021l1.459-4.725Zm.454,7.537v-1.935a5.086,5.086,0,0,0,1.176.529,3.9,3.9,0,0,0,1.108.174,2.375,2.375,0,0,0,1-.174.562.562,0,0,0,.367-.529.49.49,0,0,0-.166-.378,1.546,1.546,0,0,0-.427-.265,4.847,4.847,0,0,0-.571-.2q-.31-.091-.6-.2a5.722,5.722,0,0,1-.813-.374,2.349,2.349,0,0,1-.59-.465,1.827,1.827,0,0,1-.363-.612,2.444,2.444,0,0,1-.125-.824,2.121,2.121,0,0,1,.283-1.119,2.316,2.316,0,0,1,.756-.767,3.454,3.454,0,0,1,1.081-.438,5.637,5.637,0,0,1,1.266-.14,7.026,7.026,0,0,1,1.043.079,7.786,7.786,0,0,1,1.043.231v1.845a3.77,3.77,0,0,0-.971-.4,4.1,4.1,0,0,0-1.017-.132,2.253,2.253,0,0,0-.442.042,1.457,1.457,0,0,0-.367.121.673.673,0,0,0-.249.2.47.47,0,0,0-.091.283.524.524,0,0,0,.136.363,1.182,1.182,0,0,0,.355.261,3.507,3.507,0,0,0,.488.2q.268.087.533.178a6.929,6.929,0,0,1,.862.363,2.755,2.755,0,0,1,.661.461,1.811,1.811,0,0,1,.423.62,2.2,2.2,0,0,1,.147.847,2.209,2.209,0,0,1-.3,1.176,2.391,2.391,0,0,1-.794.794,3.6,3.6,0,0,1-1.142.446,6.329,6.329,0,0,1-1.342.14A6.918,6.918,0,0,1,28.312-33.158Zm8.384.393a1.393,1.393,0,0,1-.983-.363,1.167,1.167,0,0,1-.393-.892,1.123,1.123,0,0,1,.4-.892,1.493,1.493,0,0,1,1.009-.348,1.438,1.438,0,0,1,1,.352,1.145,1.145,0,0,1,.389.888,1.152,1.152,0,0,1-.4.9A1.5,1.5,0,0,1,36.7-32.764Z" transform="translate(136.5 295.538)" fill="#f9a66e"/></g></svg>