<svg xmlns="http://www.w3.org/2000/svg" xmlns:xlink="http://www.w3.org/1999/xlink" width="75" height="75" viewBox="0 0 75 75"><defs><linearGradient id="a" x1="0.5" x2="0.5" y2="1" gradientUnits="objectBoundingBox"><stop offset="0" stop-color="#f9a66e"/><stop offset="1" stop-color="#ffbfbf"/></linearGradient></defs><g transform="translate(-943 -509)"><g transform="translate(228 192)" style="isolation:isolate"><g transform="translate(715 317)" stroke="#f9a66e10" stroke-width=".6" fill="url(#a)"><rect width="75" height="75" stroke="none"/><rect x="0.5" y="0.5" width="74" height="74" fill="none"/></g><path d="M12.609-13.446,9.833-9.953V0H2.8V-34.836H9.833v15.193L12.059-23.4l6.484-11.437h8.613L17.179-19.523,27.323,0h-8.35ZM49.909,0H29.381V-4.785l9.427-11.987a26.259,26.259,0,0,0,2.644-4.366,8.733,8.733,0,0,0,.849-3.6,6.987,6.987,0,0,0-.8-3.637,2.552,2.552,0,0,0-2.309-1.316,2.97,2.97,0,0,0-2.62,1.531,8.05,8.05,0,0,0-.969,4.307H28.807a12.922,12.922,0,0,1,1.328-5.862,9.917,9.917,0,0,1,3.732-4.127,10.218,10.218,0,0,1,5.443-1.471q4.666,0,7.238,2.572t2.572,7.309A13.948,13.948,0,0,1,47.7-19.464a36.7,36.7,0,0,1-5.156,7.453L38.066-5.623H49.909Z" transform="translate(727 372)" fill="#f7f7f8"/></g></g></svg>