<svg xmlns="http://www.w3.org/2000/svg" width="1495" height="688.973" viewBox="0 0 1495 688.973"><g transform="translate(-213 -2202.235)"><g transform="translate(201 987)"><g transform="translate(12 1215.235)"><g transform="translate(0 0)"><path d="M754.706,524.989c1.719-.137,4.029-1.673,5.474-.284a11.436,11.436,0,0,1-5.474,6.049c-1.2.532-2.771.334-4.027.864-2.391.983-3.656,3.476-5.748,5.184-1.985,1.606-4.6,2.981-6.633,4.32-1.955,1.272-4.8,3.88-7.2,2,.189-3.368,3.773-3.331,4.619-6.049-.015-2.013-1.8-2.239-1.731-4.318,3.99-3.5,10.265-6.01,11.216-13.238.438-3.2-2.165-10.07,1.732-10.367,4.587-.347,2,4.617,2.311,7.2.117,1.048,1.193,1.76,1.714,3.17C751.916,522.044,751.836,524.34,754.706,524.989Z" transform="translate(734.819 72.152)" fill="#fff"/><path d="M759.066,525.78c-1.6,4.806-8.6,7.321-13.244,10.367-1.419.939-2.582,3.068-4.32,3.736-2.244.9-4.8.6-7.188,1.729-3.8,1.788-6.659,5.286-10.077,7.488-3.346,2.152-8.234,5.179-12.1,5.468-4.259.325-12.127-2.415-6.906-6.331,2.261-1.688,7.06-3.674,9.5-4.886,8.187-4.114,19.7-6.876,26.482-11.812,3.834-2.786,7.3-5.746,10.945-8.056C753.978,522.319,757.044,525.439,759.066,525.78Z" transform="translate(702.537 88.632)" fill="#fff"/><path d="M713.306,435.671c.922-.25.9.449,1.445.573-.347,4.114-2.812,6.8-8.067,6.34-2.348-.219-6.449-1.979-6.616-3.164C699.48,435.283,710.674,437.83,713.306,435.671Z" transform="translate(698.491 -13.849)" fill="#fff"/><path d="M746.417,469.365c2.079.588,11.326,7.132,8.345,10.07-1.612,1.619-3.693-.859-6.323-1.434-3.526-.77-6.229.167-8.638-1.729-2.74-2.144-3.4-6.818-6.34-9.5-1.482-1.354-5.407-3.17-8.052-2.882-4.574.495-4.53,5.737-8.638,8.063-3.932-.423-6.258.718-9.217-.293-3.111-1.059-4.674-5.093-7.49-5.459-2.92-.4-9.849,4.711-10.934.284-.877-3.585,4.83-4.763,5.177-7.2.371-2.5-2.239-6.39-3.454-7.49s-2.9-1.178-4.318-2.011c-1.467-.881-2.608-2.567-4.318-3.454-6.028-3.148-15.238-1.868-17.558-6.913-.41-.9.228-1.877-.289-3.164-.625-1.577-2.944-2.087-3.745-3.454-2.044-3.511-.61-8.694,2.879-9.217,3.148-.464,9.356,3.417,10.077,5.765.386,1.228-.262,2.608,0,4.027.328,1.7,2.871,5.858,5.184,6.043,2.981.245,4.739-4.355,7.479-6.043,1.9-1.163,5-2.5,7.495-2.3,2.443.189,4.088,2.116,6.9,3.164,2.013.755,4.522,1.055,6.915,1.729,2.085.588,3.9,1.818,6.041,2.589,6.854,2.487,15.011,3.94,18.712,8.352,1.011,1.209.987,2.99,2.311,4.32,1.215,1.228,7.874,2.428,8.056,5.184.145,2.094-2.742,2.215-2.873,4.316C739.532,464.923,745.414,464.676,746.417,469.365Z" transform="translate(651.277 -27.967)" fill="#fff"/><path d="M681.916,524.858a18.343,18.343,0,0,1-7.2,10.079c-2.595,1.808-10.855,5.459-11.8.291-.263-1.441,1.608-8.122,2.3-9.5,2.038-4.034,4.209-1.4,7.49-.866C676.069,525.4,679.232,522.825,681.916,524.858Z" transform="translate(655.032 88.98)" fill="#fff"/><path d="M685.827,342.4c1.172,3.452,1.97,6.854,2.886,10.074-3.177,3.949-9.452,2.487-14.1,4.6-2.187,1-2.793,4.632-4.9,5.184-1.692.445-3-1.469-4.6-1.439-4.136.08-6.158,6.92-11.231,5.184-2.9,1.729.115,8.36-3.452,8.918-2.539.4-3.934-2.877-5.474-4.891-1.864-2.443-4.524-3.782-4.6-5.759-.08-2.05,4.129-5.481,5.459-6.906,1.636-1.751,4.847-5.017,6.906-5.474,3.838-.842,7.733.371,10.658-.857,2.521-1.076,2.669-5.047,4.027-6.047,1.157-.853,2.472-.618,3.461-1.15,2.669-1.447,5.555-6.427,4.027-11.515-.961-3.213-6.288-6.733-2.873-10.658,5.1.547,11.823,5.568,12.665,10.658.328,1.983-.772,3.969-.584,6.041C684.206,339.558,685.311,340.838,685.827,342.4Z" transform="translate(628.663 -147.146)" fill="#fff"/><path d="M674.112,322.217c-.646,1.467-1.949,1.163-3.164,2.011-1.176.831-2.573,3.469-4.025,3.745-2.315.436-4.91-2.267-7.208-1.723-2.695.64-1.117,2.712-2.011,5.177-2.363-.5-6.24-3.133-6.334-5.759-.063-1.649,2.079-2.669,2.6-4.6.851-3.292-1.36-4.949-2.6-8.063-.087-.464.276-.495.286-.864,2.812-.59,8.336,4.711,14.685,5.757C670.441,318.574,673.871,318.21,674.112,322.217Z" transform="translate(641.535 -158.345)" fill="#fff"/><path d="M659.268,452.049c.291,2.391-3.884,2.116-4.32.566C655.029,450.763,658.752,450.181,659.268,452.049Z" transform="translate(645.736 4.033)" fill="#fff"/><path d="M647.774,305.616c2.853,1.5,9.758,4.921,4.893,8.063C649.723,312.588,646.657,308.864,647.774,305.616Z" transform="translate(637.069 -165.924)" fill="#fff"/><path d="M644.5,447.913c3.292-1.8,6.891-5.737,12.663-3.752-1.265,3.585-5.6,3.511-8.345,5.184-2.777,1.692-5.125,4.563-8.638,4.893a2.633,2.633,0,0,0-1.154-1.156C639.009,449.868,642.216,449.134,644.5,447.913Z" transform="translate(627.108 -4.493)" fill="#fff"/><path d="M645.42,421.28c3.378.009,6.564-1.039,8.911.291-.436,7.2-11.6,1.725-18.988,2.879-1.577.241-2.042,1.46-3.752.857.1-2.435,2.728-4.9,5.468-5.175C639.173,419.913,642.328,421.273,645.42,421.28Z" transform="translate(618.414 -31.992)" fill="#fff"/><path d="M651.709,425.219c.328,3.984-5.11,4.426-6.622,7.5,2.393,3.654,3.322,8.766,6.049,12.081-.115,2.2.443,5.066-.868,6.047-5.791,1.113-8.911-9.3-11.229-12.947-4.431.829-.386,15-6.327,13.24-2.914-.866.037-4.915-.582-8.056-.536-2.762-3.242-3.328-3.452-5.481-.167-1.775,1.957-3.656,2.589-5.468.916-2.61.334-7.633,3.452-7.766,1.541-.069,3.608,3.237,4.609,3.448C642.77,428.557,646.853,424.31,651.709,425.219Z" transform="translate(614.996 -27.012)" fill="#fff"/><path d="M638.41,445.745c-1.059,2.181-6.978,1.133-7.477-.868C631.94,442.609,637.918,443.293,638.41,445.745Z" transform="translate(617.644 -4.636)" fill="#fff"/><path d="M635.265,449.525a7.174,7.174,0,0,1-1.139,1.156c-2.189-.7-4.524-1.228-5.184-3.454C630.556,444.857,635.2,446.819,635.265,449.525Z" transform="translate(615.315 -1.511)" fill="#fff"/><path d="M636.344,445.706c-1.46,2.074-6.527-.167-8.345,2.014-3-.074-6.01-.111-6.622-2.589.864-2.107,3.591-.66,5.757-.864C630.61,443.953,635.422,441.512,636.344,445.706Z" transform="translate(606.465 -4.89)" fill="#fff"/><path d="M613.6,547.981c-.022-2.541-1.614-4.782-2.022-7.477-.145-.974.145-2.233,0-3.463-.189-1.781-1.07-3.263-.864-4.318.4-1.905,2.623-2.109,3.174-3.743.9-2.684-1.1-3.114-1.154-6.331-.037-2.276,1.725-3.383,2.884-6.334.534-1.367.555-3.919,1.143-4.893.749-1.226,3.934-2.267,5.184-2.871,4.413-2.168,7.952-6.193,12.387-6.915,1.12-.18,2.645.141,3.452,0,2.612-.456,5.889-2.645,9.5-3.452,3.491-.792,6.581-.495,9.211-2.022,2.888-1.662,6.974-6.025,8.056-8.634,1.315-3.164.929-5.83,3.454-6.909,1.241-.521,2.456.046,3.743-.284a17.76,17.76,0,0,0,5.184-2.593c2.007-1.8,2.335-4.741,4.6-6.622a40.238,40.238,0,0,1,6.627-4.311,11.416,11.416,0,0,1,4.6-1.159c4.064.349,5.952,6.015,10.367,4.893,1.578-.4,3.185-3.749,4.615-5.756,2.074-2.936,3.584-6.891,7.191-7.77,2.914-.714,6.171,1.12,7.772-1.441.362-1.818-1.361-2.9,0-4.034,3.359.211,9.029,4.739,14.1,4.891,2.734.087,7.807-2.979,8.352,1.156.241,1.831-2.048,3.309-2.589,5.184-.384,1.321.566,2.035-.288,3.454-2.343.922-4.821,1.408-4.893,4.027-.089,3.285,4.645,4.826,7.479,6.629,1.949,1.23,3.569,3.111,4.611,3.736.885.523,2.289.77,2.877,1.15,1.87,1.213,3.192,3.962,5.765,4.036,2.923.072,5.845-3.658,7.479-7.206,1.914-4.144,2.022-9.176,2.873-13.529.291-1.454,1.324-2.873,1.732-4.318,1.111-3.936,2.617-9.254,6.041-10.652,3.437,3.641,4.611,10.723,4.04,16.707,2.3,1.744,6.342,1.163,6.9,5.181.2,1.389-.688,3.164-.573,4.6.2,2.428,2,4.55,2.311,6.624.575,3.836-.64,7,1.141,9.788,2.248,3.521,6.653,3.4,9.5,7.208-.05,2.361.888,3.315,1.439,5.166.271.881.015,2.315.293,2.89.922,1.922,3.415,2.113,4.318,3.734.445.8.319,2.307.864,3.743.788,2.116,2.684,3.693,4.029,5.759,1.3,2,3.43,4.175,3.741,5.765.577,2.866-1.5,4.832-2.018,7.191-.618,2.864,0,6.557-1.141,9.5-1.336,3.459-4.632,6.87-7.2,11.224-2.111,3.582-4.982,7.62-8.063,10.077-1.818,1.454-3.977,2.3-5.759,3.752-2.755,2.244-5.017,5.162-7.482,7.77-2.6,2.74-5.735,4.834-7.779,7.188-2.957,3.426-4.426,8.95-9.493,9.5-2.966.325-5.626.072-8.354,1.157-4.262,1.692-7.089,4.81-9.2,4.893-2.226.069-4.283-2.613-6.34-2.882-2.3-.3-4.116,1.747-7.481,1.725-1.376-.006-2.064-.814-4.027-1.441-4.116-1.3-8.638-1.248-9.211-5.75-.328-2.456,1.562-3.561,1.432-5.765s-2.276-2.747-3.17-4.6c.566-1.983.66-4.485-1.441-5.765a5.773,5.773,0,0,1,1.156-4.025c-1.671.712-3.875,1.154-5.763,2.311-2.1,1.263-3.608,4.17-6.034,3.736-2.278-.8-.529-3.061-.866-4.893-.254-1.4-3.439-7.351-4.9-8.347a40.96,40.96,0,0,0-9.783-3.752c-8.9-1.389-14.568,3.368-21.6,4.045-1.8.167-3.767-.3-5.461,0-5.787,1.011-12.235,5.6-15.839,8.629-5.954.588-11.988-1.222-18.139.582-6.1,1.779-9.595,6.863-18.988,5.459-1.862-1.6-5.168-2.391-5.184-5.177-.022-2.2,3.248-3.613,4.318-5.181,1.135-1.682,3.075-5.637,3.164-8.063.059-1.912-1.289-4.2-1.156-6.616C612.556,551.865,613.619,549.852,613.6,547.981Z" transform="translate(588.62 3.095)" fill="#fff"/><path d="M620.047,442.3c1.571-.219,2.741-1.378,4.318-1.43,3.352-.132,6.674,2.478,10.643,2,.866.931.275,1.7.3,3.177,3.365,1.8,8.89,1.467,10.641,4.886-2.523,2.673-6.266.755-9.5.284-2.921-.414-6.032-.213-9.211-.575-4.025-.466-7.67-2.69-11.506-3.164-2.335-.291-4.719.334-6.915,0-2.589-.4-12.242-4.042-12.379-6.614-.141-2.656,4.346-3.4,8.345-2.888C609.955,438.656,613.409,443.221,620.047,442.3Z" transform="translate(577.284 -11.266)" fill="#fff"/><path d="M618.034,460.51c-2.174-.612-4.216-.278-5.168-.866-1.972-1.213-1.68-4.661-2.313-6.622-.634-1.985-3.023-3.046-4.309-5.757-1.877-3.927-2.684-12.715,2.3-13.531,2-.336,4.07,1.209,5.466.866,2.777-.683,2.289-4.274,4.609-5.765,1.284-.829,3.643-.482,5.474-1.148,1.883-.692,3.3-2.487,4.6-4.029,1.209-1.439,2.153-3.851,3.743-4.891,1.788-1.18,3.448-1.206,4.893-2.306,3.773-2.877,3.895-6.891,6.907-10.367,2.558-2.936,6.6,2.829,6.915,5.186,1.43,1.829,4.244,2.28,5.466,4.318-1.693,5.066-6.477,5.5-5.466,12.663a20.485,20.485,0,0,0,1.729,4.9c.822,1.686,3.257,3.5,3.163,4.6-.189,2.152-4.524,2.059-5.474,4.318-.875,2.094.063,2.233-.284,5.468-1.213,2.348-4.463,2.914-5.474,5.765-1.215,3.424.18,7.85-2.586,10.367-1.914-.1-4.008,1.656-6.327,1.43-2.521-.23-4.928-3.693-8.935-3.743-1.528-.013-3.331.976-4.893.866C620.841,462.143,619.843,461.011,618.034,460.51Z" transform="translate(587.06 -49.339)" fill="#fff"/><path d="M605.272,427.78c7.321,0,7.321,11.368,0,11.368S597.944,427.78,605.272,427.78Z" transform="translate(581.197 -23.017)" fill="#fff"/><path d="M627.465,447.961c.9.124,4.086,4.552,4.034,5.765-.1,2.029-3.146,1.918-4.034,4.6-1.352,4.138.612,8.825-1.723,10.947-1.308.792-3.669.553-5.756.568-5.22-3.673-9.356-8.048-13.821-12.956-1.619-1.781-3.6-3.328-4.609-5.184-1.495-2.749-2.029-5.772-3.736-8.345-1.51-2.261-4.281-3.875-5.763-6.331-1.2-2.022-1.317-4.676-2.584-6.624-1.189-1.81-3.2-2.586-4.615-4.034-.916-.944-1.441-2.419-2.3-3.452-3.619-4.333-10.58-6.594-10.936-12.956,1.475-1.686,3,.634,5.752,1.156,1.786.336,3.9-.145,5.184.284,2.615.879,4.418,4.962,7.2,7.2,1.556,1.252,3.584,2.116,5.175,3.454,1.71,1.432,2.96,3.48,4.322,4.318,1.875,1.148,4.47,1.9,6.911,3.461,3.331,2.116,9.271,4.318,10.079,8.642.2,1.07-.5,2.886-.293,3.73.4,1.512,2.311,2.168,3.454,3.454,1.417,1.606,1.708,4.005,3.743,4.324C625.176,450.547,625.269,447.676,627.465,447.961Z" transform="translate(548.266 -44.569)" fill="#fff"/><path d="M535.951,399.285c2.478.814,10.754,10.868,8.349,16.417a6.529,6.529,0,0,1-6.334,3.161c-5.7-.9-4.611-13.585-2.879-18.712A1.478,1.478,0,0,1,535.951,399.285Z" transform="translate(503.899 -56.351)" fill="#fff"/><path d="M449.32,481.308c.254-2.32,1.905-6.123,3.743-7.5,2.656-1.97,6.245-1.766,8.926-3.164,2.211-1.154,5.275-3.066,6.909-5.181,1.389-1.8,1.462-3.845,2.6-5.184.77-.924,2.515-1.172,3.446-2.3.835-1.018.655-2.908,2.022-4.027,4-1.71,5.145,5.613,5.763,10.643.182,1.571,1,3.25.851,4.029-.414,2.3-2.944,2.769-3.736,4.333-.2,6.308-2.673,11.791-4.9,16.972-1.912,4.481-3.023,9.387-4.6,13.247-.575,1.4-1.781,2.5-2.3,3.736-2.079,4.9-2.842,12.593-6.627,14.687a30.206,30.206,0,0,1-8.063,2.014,8.2,8.2,0,0,1-7.482-5.752c-.488-1.636-.009-3.344-.291-5.184-.349-2.311-1.725-4.281-1.441-6.913.64-5.858,6.347-8.7,6.624-13.529C450.972,488.6,448.919,484.992,449.32,481.308Z" transform="translate(399.086 7.309)" fill="#fff"/><path d="M478.94,320.18c.334,4.828-7.377,4.225-8.352,8.354-.438,1.868.9,4.361.582,6.041-.59,3.025-3.513,2.146-7.2,3.745-1.881.814-3.706,3.808-5.756,4.027-1.9.2-3.053-1.107-4.318-.857-1.89.356-1.258,2.673-4.036,3.161-2.209.386-6.078-1.977-6.332.866-.167,1.825,3.476,2.812,5.759,2.586,1.81-.174,3.133-1.417,4.891-1.439,3.409-.03,5.628,2.53,7.772,2.6,4.943.139,9.792-4.565,14.976-4.034,2.341.239,3.73,1.9,5.468,1.729,2.775-.263,5.138-3.467,7.2-4.609-.87-4.849.08-11.246,4.611-11.515,3.111-.182,7.779,5.32,8.345,0,.247-2.311-2.456-4.357-4.318-4.32-1.658.037-3.832,3.281-5.184.584.009-2.641,2.966-1.942,4.609-2.6,1.222-.486,2.087-1.816,3.454-2.3,6.848-2.406,16.341,2.363,19-3.452-6.075-5.184-16.421,1.89-23.321,1.439-2.942-.189-6.826-2.376-7.77-5.184-.3-.885-.05-2.079-.291-3.736-.263-1.838-1.215-3.765-1.148-4.9.291-5.2,13.238-6.177,13.238-12.663-2.472-2.372-9.721-1.97-12.09.573-.851.916-.807,2.769-2.014,4.609-2.582,3.934-10.921,4.4-13.529,9.211-.582,1.07-1.593,3.992-1.156,5.759C472.711,316.576,478.745,317.316,478.94,320.18ZM410.423,601.735c-8.3-1.215-16.779,2.131-22.457,4.6-3.279,1.434-6.616,3.615-9.5,3.745-2.734.132-5.422-1.452-8.054-1.723a44.238,44.238,0,0,0-11.233.575c-3.307.588-6.295,2.951-9.211,3.161-5.583.423-10.89-5.03-14.394-7.77-2.144-1.671-4.324-3.04-6.331-4.6-2.152-1.686-4.943-2.706-6.622-4.32-2.27-2.194-2.27-6.01-3.454-8.927-1.4-3.43-5.67-5.954-8.927-9.211-2.437-2.434-8.026-6.075-8.636-9.209-.306-1.6.681-3.448.573-5.184-.152-2.523-2.05-3.956-2.014-5.759.059-2.53,3.038-4.487,3.743-6.624.365-1.089.189-2.63.575-4.027.807-2.923,2.743-4.652,2.3-8.926-.174-1.7-1.634-3.257-1.729-5.466-.059-1.514,1-2.356.866-3.745-.219-2.458-3.411-2.938-3.745-5.756-.334-2.916,2.786-5.323,4.609-8.638.822-1.484,1.274-3.758,2.014-4.893,1.614-2.45,4.246-3.634,5.474-6.047.9-1.781,1.193-4.422,2.016-5.759,1.061-1.716,3.168-2.638,5.182-4.893,1.636-1.84,2.3-4.064,3.454-4.893,1.445-1.046,3.606-1.3,5.181-2.014,5.331-2.428,9.226-5.555,11.8-10.658-.785-4.63.4-6.585,2.3-9.784,1.758-2.96,3.044-5.787,6.047-7.49,3.6-2.035,6.98-2.224,9.5-6.041,1.256-1.912,3.148-5.212,3.17-7.2.028-2.849-2.923-6.5-5.468-6.913-2.6-.414-6.6,1.977-8.063-.857-.464-.909.176-3.033,0-4.036-.332-1.883-1.946-3.213-2.011-4.6-.139-2.7,2.658-5.518,3.452-8.636,1.076-4.246.037-7.494-.291-12.381,4.027-6.347,12.969-3.2,21.882-2.6,1.337.093,2.871-.321,4.318-.284,5.286.124,9.443,1.716,11.224-2.879.67-1.729,1.265-8.163.866-9.79-.473-1.929-4.253-6.924-6.049-8.056-2.855-1.818-7-1.026-8.636-4.318,1.33-5.685,7.7-.953,11.515-2.3,1.948-.692,1.729-4.064,3.461-4.609,1.178-.371,2.682,1.185,4.318,1.154,1.4-.028,6.449-2.567,7.772-3.461,1.838-1.243,2.4-3.823,4.027-4.893,1.1-.718,2.545-.631,3.745-1.148a21.679,21.679,0,0,0,7.2-5.184c2.378-2.849,3.448-6.384,6.334-6.906,3.86-.705,12.589.764,13.244-3.461.618-4.021-3.539-7.182-2.014-11.515,1.206-3.424,4.281-2.821,8.638-4.893,2.1,1.491,1.488,5.752,1.723,8.354,2.675.022,8.119-.792,8.636-3.17.647-2.966-3.9-5.982-4.893-7.772-1.076-1.94-1.308-5.349-3.454-5.756-4.383-.844-8.642,6.041-14.11,6.041-3.591,0-7.4-2.769-8.345-5.466-.538-1.543-.05-3-.291-4.609-.349-2.356-1.76-4.8-1.148-8.056,2.2-3.78,7.284-4.389,10.94-6.338,1.382-.736,2.493-2.3,4.027-2.879,2.582-.953,6.4.006,8.926-1.441,1.6-.907,1.15-2.478,2.307-4.318.718-1.156,2.478-1.831,3.452-3.161.677-.924.757-2.32,1.441-3.17,2.5-3.111,7.065-4.259,8.92-7.481.82-1.426-1.419-1.955-.857-4.034.929-2.007,4.52-.532,6.613-.866,2.866-.443,5.511-3.925,8.636-4.6,3.266-.705,6.761-.276,9.794-1.439,1.81-.7,3.474-2.341,5.184-2.6.6-.087,2.3.328,3.161.291,1.1-.043,2.283-.72,3.743-.866,2.118-.211,4.741.516,7.49.575,4.55.1,8.874-1.367,12.663.291,1.983.864,1.76,3.111,4.316,4.027,1.289.464,2.988-.182,4.895,0,2.819.269,5.763,2.218,9.5,2.6,1.33.13,2.7-.167,4.025,0,4.116.5,8.638,2.669,12.674,4.027,3.372,1.141,10.519,2.56,10.649,5.759.158,3.786-6.214,4.893-8.927,4.893-4.528,0-10.526-2.647-15.251-1.15.069,6.514,7.1,11.443,13.529,10.652.564-3.062-3.636-1.361-3.17-4.318,2.871-2.168,6.31,1.452,10.367.863,1.582-.427,1.315-2.719,1.723-4.318,3.422-2.081,7.711-5.132,12.956-2.879a2.538,2.538,0,0,1,1.154-1.148c.341-3.164-3.454-4.813-1.441-7.779,1-2.044,6.37-1.337,7.2.291.414,1.949-1.33,1.738-1.154,3.452a4.639,4.639,0,0,0,4.609,2.6c2.827-.152,3.387-2.682,6.049-4.034,1.074-.545,2.652-.6,4.027-1.15,1.63-.647,3.01-1.955,4.318-2.3.959-.252,2.406,0,3.745-.289,1.7-.364,3.5-1.731,4.891-1.723,1.738,0,2.979,2,5.184,2.3,1.2.161,2.567-.681,4.318-.864,1.41-.154,2.871.167,4.029,0,2.747-.4,4.637-1.847,6.911-1.729,1.608.087,4.363,2.252,5.468,1.154,1.862-1.846-2.484-3.22-1.141-4.9,4.411.334,9.1.232,13.531.866,6.577.937,12.772,4.194,18.7,4.318-.56-4-5.14-2.849-7.2-4.6-.625-.538-3.2-4.754-3.161-6.049.013-.647,3.257-6.186,4.029-6.906,2.536-2.385,10.86-2.369,13.236.859,1.629,2.209,1.089,5.539,3.454,5.472,2.035-.056,3.118-5.058,5.472-5.184,1.949-.1,2.938,3.209,4.893,3.17,2.387-.05,4.045-4.491,7.2-4.609,1.7-.065,2.267.872,4.891,1.15,1.8-1.156-.6-2.684.293-4.318,3.218-2.341,10.569-.562,14.676-2.016,1.148-1.367-1.462-2.333-.284-3.743,3.548-2.478,9.51-2.706,15.551-3.736,3.693-.634,7.175-3.2,10.068-3.461,3.025-.269,5.911,1.773,8.638,1.729a16.066,16.066,0,0,0,5.184-1.148c1.621-.631,2.727-2.2,4.324-2.6,2.523-.618,5.713.3,8.636,0,3.09-.312,5.819-1.512,8.056-1.148,2.092.334,3.773,2.565,5.759,2.877,6.062.946,12.322-.909,17.844.575.989.269,1.985,1.293,3.172,1.732,3.7,1.352,6.221.929,6.913,5.466,2.907,1.033,4.615,3.7,8.056,4.609,2.3.6,4.609-.291,7.2-.291a80.371,80.371,0,0,1,10.647.575c1.651.254,3.012,1.469,4.611,1.729,1.163.189,2.7-.124,4.027,0,1.8.167,3.424.909,4.893.866,3.018-.1,5.307-2.786,7.77-3.17,1.326-.2,3.085.473,4.32.575,4.849.408,10.439-.634,14.394.291,2.116.493,5.73,2.821,8.063,4.6,1.693,1.293,2.719,3.35,4.316,4.318,1.515.916,5.353,2.558,6.915,2.3,1.84-.291,1.918-2.341,3.736-3.164,5.715-1.272,15.848,1.818,20.444-.291,1.779-.82,1.432-2.7,2.879-3.743,8.636-.421,17.243.356,25.334.575,2.845.08,5.78-.727,8.354-.284,2.849.495,4.927,3.352,7.763,4.318,1.89.64,5.221.306,8.063.866,1.909.371,3.476,1.519,4.891,1.723,3.077.436,6.015-.343,8.937-.575,6.6-.529,15.084-.879,21.589,1.732,3.461,1.389,4.915,4.194,8.629,4.6,5.323.588,13.559-.438,19,0,1.3.109,2.517.647,3.452.573,1.827-.13,2.938-1.679,5.186-1.723,2.849-.065,7.386,4.442,11.522,3.745,1.781-1.206-1.432-2.886.276-4.036,1.621-1.345,3.841-.013,6.34,0,1.36.015,3.033-.69,4.318-.573,3.163.273,6.167,3.118,10.077,4.027a35.918,35.918,0,0,0,11.233.582c2.762-.306,5.131-1.237,7.77-.866,1.274.176,2.406,1.1,3.737,1.441,1.23.31,2.43.013,3.456.282.959.263,1.909,1.163,2.884,1.441,5.351,1.532,12.476,2.289,18.139,4.034,3.328,1.024,6.733,3.09,9.5,3.161,1.363.046,2.573-.588,4.318-.573,8.7.059,18.927,3.678,18.126,11.806-10.179,2.231-18.693-7.008-29.364-4.318-1.7.428-3.591,2.3-3.448,4.027.395,5.016,13.038,4.593,14.1,9.5-2.07,1.549-4.333.087-6.041.291-2.6.306-6.971,3.046-8.638,4.6-1.946,1.825-3.656,6.5-5.756,6.913-2.573.5-6.5-2.537-10.365-1.729-1.419.3-2.78,2.063-4.027,2.3-3.179.6-7.221-1.732-9.2,2.014,1.046,2.632.408,6.3,2.586,7.772,1.4.959,3.164.217,4.893.864,2.022.757,3.14,3.222,4.884,4.609,1.434,1.128,2.96,1.156,3.751,2.589.182,2.122-.844,2.356-.579,3.743.451,2.415,4.224,2.962,4.318,4.6.13,2.079-2.378,1.636-2.871,3.743-.182,1.339,1.547,1.695,1.723,3.454.115,1.176-.952,2.4-.859,3.743.124,1.92,1.636,3.2,1.432,4.893a4.477,4.477,0,0,1-2.6,3.17c-5.511-3.541-10.476-8.419-16.408-12.956-6.071-4.652-15.7-10.365-16.692-20.151-.035-1.5,3.177-2.675,3.739-4.893.23-.909-.358-2.2-.284-3.454.2-3.381,3-6.629,2.886-8.636-.139-2.2-4.246-6.295-6.34-6.913-1.671.879-.02,2.623-.291,4.034a5.693,5.693,0,0,1-4.318,4.027c-5.444.473-6.056-7.015-14.685-4.891-2.233.551-5.372,3.919-4.6,8.061.236,1.256,3.7,2.61,3.452,4.318-.241,1.658-7.846,2.146-9.5,2.016-4.645-.373-7.034-3.847-11.224-3.745-2.055.05-3.858,1.723-5.474,2.014-9.065,1.658-22.522-4.463-25.61,3.452-.445,1.122-.2,2.582-.581,3.745-.56,1.664-1.886,2.973-2.3,4.034-.352.887-.293,2.638-.866,4.029-.523,1.256-5.967,6.171-1.15,7.488,1.15.306,1.686-.495,3.172-.291,2.469.334,6.585,4.3,9.493,4.318,1.736.007,4.144-1.955,5.468-2.014,2.669-.13,4.594,1.593,6.62,2.589,1.938.95,4.9,2.951,6.34,2.877,2.719-.137,1.419-2.02,4.029-2.877,4.98,1.475,7.312,6.752,12.088,10.94,1.732,1.512,4.292,2.814,6.624,4.893,1.3,1.163,5.305,4.281,5.474,5.759.152,1.373-1.122,1.961-1.447,3.168-.467,1.751.625,3.04-.575,4.318-4.593-1.7-5.626-6.229-8.926-10.074-1.222-1.432-2.452-3.135-4.311-5.184-.844-.924-3.895-4.166-5.765-3.452-3.619,1.373,1.985,6.861,2.881,8.061,1.909,2.536,4.448,5.954,4.615,8.636.106,1.716-1.12,4.834-1.156,7.772-.022,1.985.5,3.786.289,5.466s-1.415,3.615-2.018,5.477c-.677,2.107-.829,4.63-1.434,6.041-1.118,2.6-4.884,5.648-7.495,5.759-2.391.1-3.415-1.842-5.757-1.725-3.541.167-4.2,3.433-6.327,6.041.182,2.836,1.07,3.81.575,5.759-.777,3.055-5.023,3.584-4.893,6.622.117,2.814,3.882,3.361,5.752,4.611a48.419,48.419,0,0,1,9.508,8.636c1.6,2.05,3.91,5.88,3.743,8.054-.217,2.851-8.417,6.813-11.815,5.759-3.218-1-2.113-4.07-2.871-6.906-.588-2.181-2.3-3.118-3.159-4.893-.462-.931-.252-2.406-.875-3.452-1.736-2.931-4.769-1.332-8.354-3.172-2.346-1.2-1.664-3.743-2.586-6.045-1.237-3.1-6.455-4.561-10.645-3.739-3.081.6-4.04,3.185-6.913,3.739-4.225-2.5.866-8.675-4.318-9.213-3.968-.414-6.6,5.7-8.929,7.488-1.571,1.2-4.418,1.447-4.6,3.164-.341,3.177,3.352,2.53,6.323,3.743,2.7,1.1,3.012,4.16,5.474,4.318,2.059.139,3.426-2.122,5.47-2.3,3.537-.312,6.412,1.28,8.634,2.6-1.439,3.489-9.189,6.049-9.211,10.649-.013,2.669,3.092,3.129,5.474,4.893,2.007,1.491,4.654,5.7,7.481,8.638,1.222,1.265,3.2,2.1,3.752,2.879,1.33,1.905,1.117,4.222,2.58,5.474.25,1.575-.718,1.964-.573,3.452.712,2.072,3.9,1.679,4.608,3.745-.59,4.965,1.476,9.638-2.588,11.515-1.875,8.9-3.99,15.87-10.077,20.726-5.474,4.355-12.7,5.641-19.294,7.772-1.71.551-3.077,2.354-4.6,2.877-3.83,1.3-10.652.51-10.934,5.184-.161,2.307,2.923,3.7,3.164,6.043.362,3.606-2.864,7.232-5.186,7.488-1.671.18-5.275-.983-5.474-4.036-.226-3.43,4.259-4.834,4.611-6.906.612-3.665-3.164-7.232-7.481-6.906-3.8.284-12.453,7.918-12.663,12.09-.167,3.12,6.177,9.61,8.345,11.515,8.085,7.126,16.671,11.4,15.251,28.789-2.018,4.4-7.182,5.344-11.222,7.772-3.077,1.846-4.611,7.575-9.794,8.063-2.079-.714-.866-3.964-1.439-5.468-.786-2.064-4.908-3.075-7.482-5.184-2.109-1.731-2.994-4.457-4.609-6.049-2.014-1.983-5.025-2.4-7.488-3.743-1.549-.844-2.756-3.808-4.318-3.736-2.538.1-1.658,2.545-2.3,6.616-.64,4.006-3.563,7.08-2.6,11.806.406,1.933,2.821,3.5,4.025,5.466,2,3.266,2.278,7.069,4.322,8.929,1.35,1.228,3.648,1.5,5.182,2.589,3.053,2.181,8.425,6.906,9.5,9.5,1.248,3.031.041,6.6.864,9.792.959,3.684,5.78,6.325,2.886,10.076-2.756-.51-5.16-2.315-7.494-3.745-3.956-2.448-5.774-4.559-8.347-8.636a26.5,26.5,0,0,1-2.3-3.452c-1-2.582-.785-5.5-1.723-8.638-.807-2.7-3.932-6.959-6.34-9.217-2.02-1.905-5.6-3.016-5.756-5.756-.21-3.862,1.308-8.406,1.156-12.958-.037-.981-.705-1.97-.859-3.161-.3-2.211.219-4.915-.3-6.915-.473-1.838-1.81-3.5-2.589-5.175a53.413,53.413,0,0,1-2.3-5.474c-1.172-3.328-2.482-9.749-5.186-10.076-2.886-.347-5.737,5.409-9.5,5.474-1.933.03-4.509-1.519-4.893-3.461-.365-1.766.907-3.548.863-5.466-.109-3.86-2.849-5.351-4.9-8.063-.831-1.1-1.048-2.638-1.734-3.454-1.308-1.562-3.808-2.434-5.466-4.025a22.785,22.785,0,0,1-4.034-5.184c-1.113-2.254-1.471-5.177-3.163-5.474-1.623-.284-3.5,2.042-5.182,2.6a48.147,48.147,0,0,1-7.774,1.439c-5.778.4-10.467-1.141-9.786,5.759-.9,3.1-4.17,3.133-6.338,4.6-2.756,1.875-4.763,5.633-7.77,8.636-1.462,1.469-3.578,2.385-4.893,3.745-1.1,1.133-1.441,2.951-2.6,4.034-3.07,2.9-7.679,3.148-9.779,7.2-.122,4.784,2.261,8.4,1.723,12.947-.247,2.072-1.8,3.912-2.02,6.049-.18,1.831.755,3.8.3,5.756-.254,1.048-1.417,1.6-2.311,2.879-.8,1.148-1.122,2.675-1.714,3.454-.974,1.241-2.567,2.107-3.469,3.17-1.46,1.732-1.768,2.964-3.164,3.168-6.307.909-7.865-11.092-10.649-16.124-1.289-2.311-3.9-4.4-5.184-7.2-1.475-3.227-1.927-7.277-4.036-10.94-1.788-3.127-4.259-6.26-5.466-9.5-1.026-2.74-1.912-6.171-2.879-9.211a49.449,49.449,0,0,1-2.3-9.783c-.241-3.739.718-6.043-2.306-7.488-2.775.653-4.012,3.452-7.2,3.452-3.07,0-11.32-5.32-8.916-10.077-2.011-2.849-7.078-4.411-10.944-7.77-2.211-1.927-4.212-6.516-8.056-6.906-1.061-.109-2.443.486-3.459.575-2.437.211-6.754-.219-9.5,0-3.452.276-7.72,1.052-12.09.573-2.814-.306-6.31-.851-9.211-1.148-3.684-.38-8.586-1.252-10.643-3.17-1.28-1.178-1.795-4.951-4.042-5.468-2.667-.618-4.136,1.447-6.616,2.014-5.277,1.209-9.682-1.081-13.247-3.452-2.528-1.679-4.834-2.552-6.62-3.743-4.376-2.931-5.162-11.743-11.808-11.808-2.311-.022-5.989,1.425-6.331,4.034-.226,1.833,2.187,5.236,3.17,6.624,3.229,4.55,9.159,6.26,10.94,12.374,1.193.464,3.621-1.048,4.893.289,1.113,2.626-.015,7.5,2.589,8.638,11.966,1.977,15.382-4.58,20.735-9.211,3.1,2.029,2.079,3.8,3.161,6.041a9.522,9.522,0,0,0,4.893,4.9c1.445.553,3.3.037,5.474.859,1.36.516,7.034,5.889,7.2,7.779.145,1.692-3.73,7.458-4.906,8.92-1.141,1.426-2.908,2.165-3.454,3.452-.406,1-.276,3.112-.575,3.745-.532,1.148-3.116,2.645-4.609,4.027a57.857,57.857,0,0,1-4.893,3.743c-1.818,1.4-2.944,3.315-4.893,4.036-3.83,1.41-7.473.807-10.649,2.879-2.081,1.352-2.087,4.4-4.6,6.041-2.63,1.71-7.132,1.723-10.949,3.461-2.448,1.111-3.919,3.272-6.034,4.027-.866.306-1.949.043-2.884.291-1.916.486-3.682,1.846-5.474,2.3-1.419.362-2.923.182-4.32.582-4.433,1.28-8.5,5.787-12.956,3.164-2.1-4.849-2.441-10.957-4.891-15.26-1.25-2.2-3.708-2.873-4.6-5.177-.124-1.853,2.109-1.345,2.3-2.879-.733-3.112-3.671-4.565-5.468-7.2-.881-1.287-1.285-3.12-2.3-4.6-3.433-4.995-10.2-7.59-11.517-13.819-.356-1.695.059-3.025-.282-4.32a16.422,16.422,0,0,0-3.459-6.041c-1.1-1.278-3.346-2.15-4.6-4.034-.835-1.243-1.018-2.994-1.729-4.318a47.759,47.759,0,0,0-11.515-13.819c-2.348.341-4.871.5-6.041,2.02a44.25,44.25,0,0,0,4.893,10.074c1.76,2.873,4.259,5.969,5.466,9.213.451,1.2.371,2.769.866,4.027,1.81,4.565,7.5,5.969,8.636,11.233.766,3.524-.167,5.967.866,9.493.989,3.387,5.989,5.388,8.063,8.636,1.686,2.654,1.7,6.405,2.877,8.929,1.723,3.693,6.542,5.292,10.076,7.772,3.17,2.231,5.44,5.67,8.054,8.061,1.54,1.4,3.658,1.651,4.034,3.17.488,1.948-.818,2.6-1.154,4.311,2.211,2.3,4.361,6.557,8.063,6.913,1.521.145,3.439-1.389,5.759-1.731,1.169-.165,2.478.184,3.452,0,1.534-.276,2.871-1.643,4.615-2.014,2.94-.631,6.347-.378,10.07-.864,3.519-.46,5.941-3.433,8.636-2.589,2.96,3.25.838,6.937,0,10.077-.291,1.1-.291,2.246-.566,3.17-1.556,5.123-5.626,8.92-7.495,13.529-.575,1.41-.475,3.142-1.141,4.6-2.146,4.615-6.616,9.167-10.085,12.956a56.742,56.742,0,0,1-5.757,5.756c-2.064,1.7-4.589,2.626-6.915,4.318A62.352,62.352,0,0,0,610.5,640.025c-1.258,1.729-1.86,3.721-3.17,5.184-1.875,2.094-4.776,3.127-6.332,5.184-1.228,1.621-2.044,4.559-3.454,7.481-1.582,3.292-4.893,5.518-4.316,10.074.215,1.745,1.779,2.829,2.3,4.611.892,3.066.208,5.648-.293,8.918,1.629,3.949,2.8,8.341,5.758,10.942.356,5.824-.479,11.478,0,16.408.306,3.14,1.528,5.453.291,8.347-1.089,2.549-5.271,7.037-7.772,8.634-2.719,1.755-6.876,2.211-9.792,4.329-2.026,1.467-3.706,4.042-5.759,5.763-3.394,2.829-8.046,5.474-8.345,8.345-.174,1.651,1.3,4.153,1.723,5.752,1.126,4.253,2.218,10.367.293,14.967-2.089,4.982-12.643,3.949-13.819,9.211-.358,1.6.7,2.879.573,4.611a38.886,38.886,0,0,1-2.879,8.345c-1.271,2.385-4.164,3.452-6.041,5.474-2.357,2.552-3.55,6.245-6.049,8.92a86.829,86.829,0,0,1-12.379,10.652,36.153,36.153,0,0,1-16.692,6.047c-3.5.247-7.247-.822-10.94-.284-1.352.189-2.821,1.432-4.609,1.725-1.039.167-2.1-.182-3.164,0-1.81.3-3.5,1.745-5.184,1.729-3.73-.043-8.521-4.491-8.636-8.92-.043-1.71,1.462-3.331,1.439-4.9-.028-1.838-2.283-4.144-4.034-7.486-1.68-3.214-2.341-6.857-4.029-9.489-1.786-2.806-4.149-4.138-5.466-6.34-2.654-4.426-2.849-9.669-3.743-14.976-.291-1.729-1.476-3.606-1.732-5.759-.312-2.645.321-5.581-.284-7.77-.464-1.686-2.333-3.4-3.459-5.472-2.029-3.732-3.454-8.61-5.177-11.511-1.621-2.719-4.891-5.553-5.184-8.634a42.722,42.722,0,0,1,.575-8.063c.312-2.022,1.81-3.621,2.3-5.752.328-1.417-.065-3.044.284-4.607,1.467-6.59,8.723-8.987,7.777-16.989-.406-3.4-2.806-5.071-3.168-8.931-.167-1.8.9-3.385.866-5.182-.052-2.428-2.109-6.041-3.17-8.347-2.916-6.353-4.7-12.159-8.92-16.983-2.3-2.63-5.307-4.485-7.2-6.913-1.549-1.977-3.43-5.678-3.461-7.2-.03-1.645,1.265-2.669,1.729-4.32.6-2.122.649-6.143,1.441-9.5.362-1.541,2.029-5.27,1.729-7.77-.291-2.409-3.875-7.024-6.913-7.772-4.021-1-8.156,1.287-13.238.864C416.413,609.906,416.739,602.657,410.423,601.735ZM569.623,704.8c1.332-2.116,3-8.063,0-9.5h-.573C567.763,697.689,566.4,703.463,569.623,704.8Zm-4.034-60.173c.974-1.992,3.257-4.1,2.879-6.613-.831-5.548-11.2-2.816-12.372,1.148-.8,2.667.471,4.782-.584,7.486,1.133,2.129,3.977,2.552,7.488,2.3C564.942,648.094,564.7,646.458,565.589,644.627Zm-17.556,29.661c1.141-2.116-1.818-3.5-2.3-5.763-.568-2.656.645-5.774-1.732-7.2h-.857C541.053,666.043,544,673.828,548.033,674.288ZM744.367,388.409c-1.081-2.174-4.192.638-2.871,2.6C743.445,391.128,744.143,390,744.367,388.409ZM677.3,400.215c4.667-.9.05-8.36-3.461-7.488C669.251,393.875,674.113,400.825,677.3,400.215Zm-21.305,37.134c1.436-9.981-6.34-10.732-7.774-17.846.662.087.319-.831.866-.866,1.89-.909,4.748,1.454,5.75-.857.022-3.411-4.3-5.954-8.638-4.32-1.248-.857-1.415-2.8-1.723-4.609-3.263-1.94-11.339-6.186-11.229-10.076.093-3.2,4.222-4.995,8.927-4.893,1.983-1.5.705-6.128-1.15-7.2-7.445-1.627-11.411-.529-16.126,2.879-2.259,1.636-4.782,2.762-6.047,3.745-1.163.9-2.719,3.365-2.586,4.6.182,1.781,2.734,2.827,3.745,5.184.514,1.213.4,2.732.864,3.743,1.258,2.777,4.479,4.574,6.906,6.906,1.716,1.651,6.527,5.227,6.622,7.2.089,1.643-1.475,2.007-2.007,3.743-.545,1.7-1.17,5.722-.864,7.2.631,3.164,3.9,3.272,6.9,4.611,2.975,1.324,5.839,3.663,8.927,3.736C650.647,440.315,654.151,439.261,655.991,437.349Zm-67.656-20.728c7.8-1.408,4.24-8,.284-10.359-3-1.788-6.579-3.344-10.074-5.474-2.029-1.235-9.736-3.569-9.786-6.041-.059-2.7,5.735-3.591,3.452-8.352-3.94-.959-13.312.551-12.663,4.893.371,2.506,3.344,1.117,4.027,3.743-2.821,1-6.253,3.634-9.213,3.17-3.526-.553-4.433-4.886-6.329-7.49-2.74.089-4.544-2.654-7.774-2.3-3.385.369-5.181,5.283-6.911,7.779-.918,1.308-2.378,1.983-2.882,3.161-.3.714.03,1.846-.282,2.879-.989,3.2-3.758,4.37-3.463,7.2.271,2.493,2.983,3.613,3.174,5.757-.191,2.211-3.741,1.061-3.456,3.745,5.153,4.253,5.437-2.007,8.063-2.879,2.109-.705,6.245.582,8.92,0,2.159-.473,3.86-2.53,6.334-3.452a17.669,17.669,0,0,1,5.474-1.156c9.159-.38,15.069,5.583,23.03,5.756A62.183,62.183,0,0,0,588.335,416.621ZM569.907,450.6c.161-3.09-1.176-5.418-1.438-9.786-5.316-3.207-9.287,2.973-14.679,2.3-3.315-.414-5.694-4.277-9.211-3.736-1.942.291-2.9,2.8-4.9,3.161-4.114.755-5.989-3.294-10.359-1.723-6.164-4.7-8.92-12.346-10.367-21.017-3.357-4.407-8.482-.822-10.938,2.011-1.512-.013-3.4-.835-3.736.866-1.135,5.323,7.523,5.889,7.479,9.5-.028,2.348-3.381,2.131-4.891,3.739-1.608,1.708-.54,3.227-2.589,4.318-5.678.683-7.562-2.422-7.49-7.482-2.45-3.723-5.546-6.433-7.77-9.5a11.7,11.7,0,0,1-2.3-4.609c-.2-1.345.64-3.053.291-4.6-.625-2.747-5.743-4.819-8.929-6.331-3.4-1.623-7.662-3.155-10.074-5.184-1.71-1.441-2.515-3.94-4.029-4.893-1.287-.807-2.886-.64-4.034-1.439-1.577-1.1-1.315-2.947-3.452-3.461-1.085-.4-2.756,1.076-3.454,2.02-1.4,6.282,3.708,6.711,6.041,9.5,1.608,1.912,2.406,4.791,4.036,6.047,1.736,1.345,4.1,1.1,6.331,2.013,1.543.634,2.545,2.554,4.027,3.454,2.749,1.673,7.16,1.964,7.488,5.184-1.708,1.163-5.583-1.695-6.906,1.154-.341,1.87,1.484,2.829,1.441,4.6-.074,2.836-3.222,5.941-6.049,5.474-.284-1.686,1.506-3.066,1.441-4.9-.124-3.665-7.49-9.256-11.224-10.936-1.753-.792-3.884-.835-5.477-1.729-2.827-1.593-7.779-5.5-9.5-7.772-2.059-2.728-3.817-7.772-8.347-7.488-1.847.117-3.374,1.81-4.893,2.6a41.627,41.627,0,0,0-4.318,2.3c-1.679,1.113-3.046,2.239-4.609,2.3-3.615.152-6.683-2.682-9.786-2.014-1.048.226-1.92,1.163-3.17,2.3-.043,1.679.5,2.756.291,4.6-.937,1.621-3.721,1.519-5.757,2.6-2.981,1.571-5.635,4.8-8.063,7.2-1.562,1.541-2.973,2.812-3.17,4.027-.152.953.807,2.756.582,4.036-.254,1.389-2.864,4.266-4.609,5.466-1.018.7-2.369.794-3.454,1.441-2.267,1.343-3.285,3.1-5.181,3.452-5.032.937-14.177-1.011-14.106,4.32.046,3.561,4.852,3.576,7.772,3.45,4.07-.158,7.531.868,9.786.291,1.556-.391,3.257-2.135,4.893-2.877,1.033-.464,2.1-.473,2.879-.864,1.723-.866,2.7-2.27,4.034-2.882a35.851,35.851,0,0,1,10.361-2.3c3.882-.228,7.937.4,12.954,0,1.788-.139,3.556-1.289,5.474-1.441,3.133-.247,7.256,1.237,9.786,1.154,1.753-.056,3.708-1.758,5.757-1.729,2.319.037,4.763,1.688,5.184,3.17.241.844-.486,2.187-.289,3.454.332,2.094,2.129,2.957,2.02,4.316-.154,1.805-4.646,4.212-4.036,6.334.4,1.367,3.621,2.792,5.184,3.743a18.735,18.735,0,0,0,6.331,2.589c1.627.182,3.068-.451,4.611-.282a22.5,22.5,0,0,1,8.061,2.877c2.706,1.905,2.326,4.958,5.468,6.041,1.337.466,3.749.2,5.466.584,4.2.907,7.308,4.383,10.367,4.027,4.821-.56,2.626-5.1,3.17-8.345,1.228-7.351,15.586-7.017,18.422-2.022,2.1.56,3.94.087,6.332.866,1.382.451,2.413,1.962,3.743,2.3,1,.254,2.465-.145,3.745,0,5.518.625,10.519,4.732,15.26,4.027,3.007-.445,5.188-3.272,8.054-3.454,5.509-.341,9.035,4.1,14.976,2.014,4.37-1.532,3.4-6.06,4.893-10.649C567.785,455.174,569.79,453,569.907,450.6ZM880.25,352.423c1.141-3.665-.634-7.366-2.879-9.786-3.324.573-.924,4.027-1.15,6.047-.326,2.858-3.359,4.843-3.17,7.772-1.1,1.293-2.992,1.8-3.159,4.027,1.829,1.267,2.63-1,4.025-2.3C876.121,356.116,879.486,354.895,880.25,352.423Zm-75.426-99.9c-3.168,0-4.363,1.25-6.331,2.3-1.083.573-3.287.894-2.589,2.589C798.668,257.085,804.164,255.835,804.824,252.528ZM683.339,287.939c6.768,1.577,9.944-6.065,5.466-10.367-1.046-1-4.58-1.4-6.034-3.736-1.764-2.814-1.519-6.572-5.765-5.759-.043.334.052.814-.291.859-.4,6.295,8.766,7.879,8.636,12.954C685.288,284.552,682.474,284.834,683.339,287.939Z" transform="translate(230.708 -241.236)" fill="#fff"/><path d="M433.147,258.861c-.838-3.114,5.066-2.612,4.034.291C436.259,260.016,433.737,259.942,433.147,258.861Z" transform="translate(386.18 -223.098)" fill="#fff"/><path d="M416.786,338.319c.132-2.376,5.555-3.248,6.616-1.148C423.046,339.483,417.9,341.075,416.786,338.319Z" transform="translate(367.136 -130.4)" fill="#fff"/><path d="M371.278,330.617c3-2.43,9.682-.785,13.819-.866-.779,2.2-.9,5.06-2.6,6.334C377.783,335.232,373.385,334.069,371.278,330.617Z" transform="translate(313.901 -138.24)" fill="#fff"/><path d="M361.748,323.966c3.955-4.129,8.106-1.948,6.624,6.043-.946,2.382-5.062,5.568-6.915,2.02C362.091,329.237,361.822,327.18,361.748,323.966Z" transform="translate(302.413 -146.849)" fill="#fff"/><path d="M366.309,319.068a3.824,3.824,0,0,1-2.014,4.318C360.5,322.718,363.387,315.907,366.309,319.068Z" transform="translate(303.61 -151.162)" fill="#fff"/><path d="M344.9,305.67c.332-1.645-.955-3.686-2.6-4.611-.944-.529-2.391-.282-3.454-.864-2.806-1.543-3.823-4.756-5.463-5.468.208-3.155-.868-5.437,0-7.488.521-1.243,4.3-4.754,6.331-5.466,2.515-.887,5.147-.1,6.622-2.014a1.87,1.87,0,0,1,1.439.282c-.013,1.818-1.541,2.116-1.729,3.745.356,2.617,4.964.981,5.466,3.452-.436,2.691-2.858,3.22-2.877,5.184-.009,1.708,3.489,4.952,5.184,7.2,1.263,1.664,3.474,2.9,4.606,4.609.989,1.491,1.209,3.266,2.014,4.027,1.512,1.434,4.93,1.673,5.186,3.745.334,2.747-3.417,3.832-2.879,6.906-3.956,3.1-10.55,1.5-16.989,2.3-2.916.371-6.13,3.27-9.211.866-.714-1.933,2.558-2.2,2.879-4.027-.226-1.7-2.378-1.462-2.879-2.881.835-2.239,3.446-2.695,3.17-6.047C341.322,307.369,344.412,308.033,344.9,305.67Z" transform="translate(269.173 -196.205)" fill="#fff"/><path d="M334.612,289.081c3.845-2.348,10.56-.551,10.934,2.3.282,2.161-2.044,2.474-2.879,4.893-.749,2.2.145,4.819-.859,6.34-.879,1.315-3.272,1.235-4.9,1.723-3.619,1.083-10.612,5.335-13.529.573.421-2.549,2.895-3.059,3.743-5.175.052-1.664-1.723-2.543-1.439-4.318.349-2.174,1.985-1.426,4.318-2.3C331.7,292.47,332.423,290.42,334.612,289.081Z" transform="translate(257.869 -186.532)" fill="#fff"/><path d="M242.46,260.472c.6,2.56-7.575,5.9-8.354,2.6C233.488,260.422,240.372,257.116,242.46,260.472Z" transform="translate(153.393 -220.393)" fill="#fff"/><path d="M235.884,558.956h-4.318A6.773,6.773,0,0,1,235.884,558.956Z" transform="translate(150.467 130.018)" fill="#fff"/><path d="M227.585,250.45a1.4,1.4,0,0,1,1.731,0c-.284.677-.51,1.41-1.731,1.148Z" transform="translate(145.81 -230.806)" fill="#fff"/><path d="M219.211,272.255c.059,1.584-5.722,4.209-6.34,1.15a2.264,2.264,0,0,1,1.157-2.3C215.561,270.162,219.152,270.7,219.211,272.255Z" transform="translate(128.566 -206.84)" fill="#fff"/><path d="M161.649,395.207c-.152.427-.427.725-.573,1.154C158.015,396.253,160.777,392.341,161.649,395.207Z" transform="translate(66.364 -62.347)" fill="#fff"/><path d="M106.732,302.046c2.022-1.178,3.956,1.775,2.6,3.17C107.1,305.646,106.537,303.1,106.732,302.046Z" transform="translate(4.396 -170.417)" fill="#fff"/><path d="M480.421,377.344c-1.343-.336-3.174-.269-4.891-.575-1.469-.263-3.213-.7-4.6-.866-3.554-.421-7.4.612-9.5-1.439a93.565,93.565,0,0,1,12.383-12.956c1.306-1.17,4.12-1.97,3.452-4.318-2.45-2.152-5.459.132-7.772,1.439-2.428,1.367-5.32,3.337-8.063,3.745-4.761.705-11.077-1.4-14.967,1.148-.538,2.174,4.426,1.332,3.736,4.609-1.905.315-3.706.467-5.177-.864-1.337-1.206-.573-3.018-1.439-3.745-1.475-1.219-7.021-1.556-9.5-1.148-3.025.495-5.7,2.3-6.047,4.893,3.634,1.7,9.625-1.753,10.94,2.6-1.992,3.585-6.681,5.555-6.049,10.361.25,1.851,2.45,4.331,4.036,4.609s2.487-1.3,4.027-1.157c1.63.152,1.258,2.014,3.17,1.729,2.771-1.185,4.3-5.075,7.481-4.893,3.808,4.624-3.439,6.878-7.481,8.347-4.609,1.671-10.6,2.558-14.112,4.034-1.838.772-8.8,7.5-9.784,2.3-.705-3.752,3.446-2.667,4.318-5.759-4.457-.864-8.608,1.92-12.663,3.461-5.789,2.189-15.594,3.578-16.989,10.077-.278,1.3.566,3.736-.284,4.6-.69.7-4.819.82-6.624,1.439-2.775.953-5.2,2.988-6.913,3.454-1.293.356-3.2.254-4.027.582-2.289.887-3.133,3.984-5.759,6.041-1.074.842-3.461,1.454-4.318,2.3-1.489,1.484-1.686,5.2-4.318,5.757-1.671.147-3.031-1.256-4.609-.289-.189,3.671,1.293,8.666-.284,12.381-3.409,2.775-7.154,4.745-11.515,7.2-2.413,1.36-4.572,1.71-7.488,3.172-2.063,1.031-3.953,3.489-6.331,4.891-5.5,3.235-12.133,7.067-12.09,15.26.009,1.775.924,3.686,1.15,5.759.137,1.219-.148,2.413,0,3.743.341,3.009,2.521,6.841,0,8.92-3.877-1.593-8.8-2.131-11.517-4.891-.742-2.845,1.5-5.184,1.156-7.772-.276-2.081-3.2-5.78-4.9-6.049-1.753-.278-3.367,1.584-5.177,1.439-2.15-.167-4.151-3.133-6.913-3.452-4.049-.473-7.03.922-11.515.291-4.342,2.32-5.613,6.449-10.934,6.041-1.877-.137-3.591-1.569-5.759-2.014-2.348-.488-5.911-1.315-8.354-1.148-4.9.326-8.454,3.851-12.663,6.041-3.715,1.933-8.972,4.34-10.077,8.354-.6,2.159-.1,5.2-.866,7.2a34.793,34.793,0,0,1-2.3,3.738c-3.229,5.9-5.9,13.689-3.452,22.173.362,1.256,3.569,8.352,4.891,9.784,1.484,1.593,5.854,3.984,8.347,4.029,2.107.043,4.58-1.07,6.622-1.439,2.369-.423,5.338-.46,7.488-1.15,6.223-1.992,4.995-10.411,11.224-13.247,2.719-1.228,5.867-1.475,10.652-1.723a6.457,6.457,0,0,1,2.02,5.468c-.161,1.469-1.554,2.8-2.3,4.893-.653,1.84-.792,3.99-1.439,5.472-.857,1.942-2.771,3.359-3.454,5.184-.449,1.185-.2,2.662-.573,3.736-.662,1.9-3.2,3.235-2.022,5.184,6.167,2.45,13.624-.7,19,.291,2.27.414,6.95,3.127,6.906,6.624-.028,2.617-2.02,4.333-2.3,7.2-.349,3.606-1.853,8.02-2.014,10.934-.254,4.776,7.008,13.021,12.09,12.954,5.474-.071,8.666-5.444,15.258-2.586,2.189.944,4.5,4.491,6.915,4.318,1.992-.145,5-3.634,6.331-6.049,1.621-2.944,1.738-5.422,4.6-6.907,3.09-1.6,5.548-.827,9.5-2.3a22.967,22.967,0,0,0,4.893-2.879c1.4-.959,2.864-3.474,4.609-1.729,2.3,2.3-2.812,3.591-.866,6.047,3.992,2.118,6.034-3.932,8.929-4.027.922-.028,4.114,1.8,5.757,2.879,2.248,1.478,3.012,3.548,5.468,4.027,1.577.315,4.114-.6,6.331-.291,2.938.423,4.689,2.944,6.913,2.879,2.712-.072,4.014-3.025,6.334-3.454,5.082-.929,6.972.569,9.211,3.745,2.508.436,2.6-2.9,4.893-1.723-1.259,2.508.427,3.665,1.439,5.759.655,1.343.545,2.3,1.156,2.879,1.374,1.308,4.027,1.308,6.041,2.589,2.124,1.337,3.322,3.823,5.759,6.622,2.508,2.864,6.724,5.83,10.074,6.041,3.164.2,5.737-.9,8.354-.575,5.954.736,9.656,3.708,13.819,6.915,2.328,1.786,4.429,3.031,5.177,5.175.523,1.5.269,3.5.866,5.186,1.271,3.582,6.5,5.312,4.609,11.515.864,1.816,2.806,2.469,4.893,3.741,1.671,1.026,3.081,3.164,4.893,3.454,1.17.189,2.443-.349,3.452-.291,3.272.232,5.518,1.5,8.354,2.6,1.76.677,4.014.946,5.184,1.738,1.46.981,1.649,4.3,3.452,5.171,1.178.571,3.8-.219,5.759,0,3.09.362,7.284,2.252,10.074,2.311,1.695.035,3.1-.7,4.6-.582,7.052.545,11.051,8.979,17.855,11.515,2.109.792,5.453.241,6.906.866,2.552,1.1,4.7,8.911,4.893,12.372.582,10.463-7.451,13.819-12.09,20.732-.968,1.449-1.5,3.739-2.879,5.759-2.762,4.064-5.837,4.908-5.466,12.379.1,2.053,1.148,4.053,1.148,6.334a41.379,41.379,0,0,1-.866,8.927c-.471,1.907-2.048,3.452-2.3,5.186-.256,1.751.516,3.111.291,4.606-.25,1.66-1.905,4-3.17,6.327-2.662,4.915-3.244,10.693-8.638,12.663-3.168,1.163-7.466.514-10.934,1.729-1.4.5-3.177,1.79-4.9,2.589-5.008,2.335-12.149,5.483-13.529,10.652-1.23,4.609,1.714,8.28.864,13.535a46.054,46.054,0,0,1-3.452,4.893c-1.243,1.636-1.862,3.554-3.17,5.184-1.731,2.168-4.42,3.127-5.466,6.049-.358.989-.132,2.165-.575,3.736-.167.582-1.228,1.482-1.731,2.589-.464,1.024-.443,2.335-.864,3.177-1.315,2.654-5.229,8.694-8.063,9.5-5.976,1.673-12.279-2.536-16.408-1.738.6,2.888,2.691,2.589,4.034,4.611.785,1.193,1.215,2.771,2.3,4.029,1.293,1.5,2.437,2.048,2.6,3.743.328,3.548-2.434,7.117-4.318,8.352-1.723,1.128-5.3,1.788-8.354,2.3-2.129.356-7.625.377-8.636,1.736-1.482,2,.785,6.937-.282,8.92-2.152,4.209-7.939-.115-10.942,1.148a5.513,5.513,0,0,0,2.3,5.468c1.81,1.061,4.559-.319,5.756,1.732-.588,2.864-3.669,3.233-4.318,6.049.082,2.747.924,3.465.575,5.175-.749,3.7-6.5,3.548-6.331,7.488.247,5.9,11.311,3.48,11.515,9.217.115,3.476-3.17,3.513-4.318,6.9-.618,1.816.356,2.239,0,3.743-.48,2.044-2.879,2.632-2.879,4.893-.007,2.756,4.027,5.787,6.041,8.063,1.97,2.233,4.5,5.416,7.2,6.913,4.042,2.231,10.061,1.732,11.808,5.757-.553,2.424-2.888,3.07-5.184,3.739h-.575a6.773,6.773,0,0,0-4.318,0H433.5c-3.851-1.775-8.527-2.923-13.244-4.6-1.7-.6-3.619-2.044-5.468-2.871-1.387-.636-2.951-.881-4.034-1.447-2.48-1.3-5.27-5.518-7.772-7.191-1.519-1.024-3.9-1.564-4.893-2.6-.944-.981-1.46-3.112-2.3-4.311-.929-1.324-2.638-2.289-3.743-3.745-2.391-3.177-5.446-7.451-5.468-9.792-.022-2.3,2.2-3.867,1.439-6.034-.7-2.044-5.125-1.6-5.756-4.04-.386-1.471,1.272-3.949,1.148-6.036-.065-1.213-2.333-2.864-1.439-4.615,1.033-2.016,2.981.167,4.609-.859-1.222-4.157.1-10.845-4.034-12.1-2.124,1.788,2.165,5.811-1.441,6.915-3.48-1.549-2.673-6.134-3.454-9.5-.508-2.224-1.612-4.225-1.721-6.622-.059-1.259.493-2.719.282-4.021-.61-3.882-4.928-7.061-5.184-10.949-.115-1.875,1.15-3.461,1.441-5.468.2-1.358-.191-2.886,0-4.318.254-1.831,1.265-3.511,1.439-5.182a45.264,45.264,0,0,0-.573-11.233c-.714-3.324-3.352-6.149-3.745-9.779-.139-1.315.436-3.5.291-5.184-.137-1.564-1-3.112-1.148-4.9-.145-1.643.408-3.2.573-5.184.306-3.611-.705-7.64-.573-11.231.035-1.054.588-1.84.573-2.873-.035-2.97-1.024-5.967-1.154-8.927-.226-5.468.6-9.341-.284-14.394-.668-3.823-1.5-9.684-2.879-12.084-1.541-2.682-7.6-7.234-10.649-8.933-2.016-1.12-4.429-1.5-6.622-2.589-4.689-2.3-13.778-7.16-15.835-11.8-.595-1.347-.516-3.122-1.154-4.611-1.252-2.953-3.89-5.5-5.759-8.354-3.554-5.431-6.427-12.24-10.077-17.847-1.847-2.849-3.446-6.078-5.468-8.345-1.185-1.339-4.98-2.589-5.466-4.611-.647-2.66-2.617-6.316-2.3-8.345.414-2.756,5.765-4.982,5.756-7.481-.007-2.137-2.855-3.378-3.452-5.181-1.454-4.4.851-6.989,2.589-10.66.573-1.2,1.133-3.138,1.729-4.027,1.055-1.584,3.2-2.029,4.6-3.743.785-.959,1.28-2.96,2.3-4.32,2.189-2.908,5.722-4,6.624-6.622.733-2.137,1.163-12.83.282-16.408-.5-2.066-2.428-3.793-3.161-5.759-1.3-3.474-1.608-7.269-5.184-7.2-2.211.043-3.767,2.487-5.184,4.027-.343,2.05-.161,4.268-2.3,4.893-3.272.968-4.531-3.448-8.347-4.6-1.519-.464-3.938-.436-4.893-.864-2.784-1.252-3.684-5.331-6.622-6.915-2.456-1.317-4.559-.857-6.047-2.879-.618-1.386-.132-3.9-.284-5.759-3.155-1.844-5.83-8.729-9.5-10.359-2.435-1.083-6.164-.981-9.211-2.014a35.221,35.221,0,0,0-4.036-1.439c-1.846-.414-3.745-.436-5.175-1.157-5.7-2.827-8.775-11.995-15.835-11.8-3.01.08-5.908,2.892-8.636,2.879-2.712-.015-7.256-2.165-10.658-3.743-3.535-1.643-7.442-2.539-10.361-4.029-2.354-1.206-3.988-3.409-6.047-4.324-1.577-.7-3.882-.822-5.177-1.432-1.838-.872-3.756-2.734-6.047-4.327-2.174-1.5-4.522-3.8-4.609-5.75-.1-2.254,2.072-4.172,2.3-6.34.742-6.854-4.311-11.784-7.488-15.833-2.354-3.009-5.119-5.561-7.481-8.347a20.474,20.474,0,0,0,0-4.027c-1.788-1.736-3.292-4.309-5.184-6.913-1.708-2.348-5.038-4.849-5.466-7.481-.532-3.233,1.228-6.075,0-9.217-2.05-5.212-9.285-2.858-8.354,4.034.263,1.9,2.938,4.45,3.745,6.334.827,1.918.668,4.311,1.439,6.622.742,2.218,2.973,4.129,3.745,6.622,1.219,3.94,1.185,8.187,2.3,10.651.989,2.187,4.633,4.259,2.589,6.907-2.725.566-3.773-2.159-5.466-3.745-.946-.879-4.37-2.552-4.893-4.6-.436-1.695,1.076-3.977.575-6.049-.989-4.064-9.189-4.166-9.219-8.347-.015-2.623,3.433-2.936,3.461-5.474.022-2.775-3.786-5.123-4.609-7.479-.749-2.159-.872-5.6-1.148-8.636-.271-2.851.078-6.151-.581-8.354-.59-1.977-3.563-4.7-5.468-5.759-2.523-1.4-4.522-.82-5.756-2.877-1.078-1.8-1.781-5.548-2.016-7.481-.414-3.461-.093-7.247-.291-10.942s-.566-7.247,0-11.224c1.426-2.784,4.021-4.159,5.474-6.913,1.011-1.918,1.156-4.29,2.3-6.331,2.109-3.76,6.7-7.234,9.792-10.942,3.328-3.99,6.4-7.813,8.345-12.381.7-1.621,2.576-5.212,2.3-7.2-.378-2.771-5.6-5.056-5.184-8.347.263-2.044,3.17-2.014,4.036-4.027a20.493,20.493,0,0,0,.866-5.184c.043-2.777-1.426-5.672-.866-8.636.473-2.532,4.238-3.556,2.3-6.331-1.92-2.749-5.366,1.482-7.488-.293-1.948-1.636.393-3.613.575-6.622.072-1.2-.7-2.567-.575-3.452.174-1.287,2.684-3.454,2.014-4.32-1.556-1.968-3.3-6.972-6.622-8.636-4.222-2.122-8.8-.69-14.676-1.729-3.608-.634-5.316-4.005-8.638-3.739-2.05.161-3.226,2.508-6.047,3.739-2.793,1.219-6.442.8-9.213,1.439-2.747.634-4.071,2.53-6.913,2.3-2.369-.182-2.385-2.32-5.175-2.589-1.091-.108-3.157.677-4.893.866-4.45.464-12.483.69-16.992-.291-4.12-.894-6.666-2.2-11.224-4.318-3.424-1.586-9.777-3.541-9.5-6.049.174-1.614,6.021-3.322,8.347-4.027,3.752-1.141,6.062-2.988,8.927-3.17,1.1-.065,2.558.683,4.029.581s3.292-1.467,5.181-1.729c4.021-.56,9.69.2,9.211-3.743C88.148,290,75.7,294.2,75.368,288.964c-.2-3.17,4.726-4.129,8.354-4.893,3.3-.7,8.308-1.877,11.224-1.729,3.287.167,7.612,3.845,9.5-.284.916-2.936-1.12-5.4-1.731-7.779,2.443-3.374,6.943-2.953,10.367-3.452a42.188,42.188,0,0,0,10.94-2.879,41.983,41.983,0,0,1,10.936-2.879c3.91-.508,7.7-1.985,11.231-2.3,2.9-.262,5.561-.03,8.345-.575,2.465-.48,5.069-1.846,7.781-1.723,1.81.08,3.359,1.4,5.175,1.723,1.708.3,3.665-.087,5.474.291,1.389.291,2.638,1.228,4.027,1.439,2.183.328,4.522-.3,6.622,0,1.933.278,3.578,1.484,5.468,1.725,4.435.573,9.508-.234,13.819.579,1.636.306,3.111,1.113,4.893,1.441,1.688.306,3.541-.043,5.184.284,2.289.456,4.2,2.623,6.622,2.879,4.457.464,9.458-1.935,14.1-2.306,3.365-.26,6.835.139,10.367-.573,3.213-.649,6.325-1.892,9.211-2.014,1.569-.067,2.886.48,4.318.289,1.491-.2,3.279-1.99,4.893-1.729,2.144.343,1.766,3.053,4.036,3.745,2.508-1.3,5.008.087,7.77,0,2.69-.1,5.1-1.33,8.063-.866,5.24.822,12.563,5.954,16.69,3.17,1.042-.705.794-1.92,1.732-3.745,1.274-2.478,3.78-5.394,3.17-8.927-5.772.093-11.283,2.914-17.855,3.168-6.637-4.157,1.775-6.737,6.622-8.636,4-1.569,7.163-5.054,12.1-5.756,4.027-.582,8.454.887,13.238,1.439,2.79.321,5.583-.2,7.2.284,2.827.851,4.281,3.65,6.622,4.318,1.011.291,2.669.26,4.029.582,2.586.6,4.906,1.964,7.486,0,2.029.362,2.267,2.521,4.32,2.879,1.912-1.033,3.387-3.658,6.331-4.318,1.28-.291,2.623.217,4.027,0,2.348-.378,5.474-3.556,6.913-.581-.588,2.079-3.73,2.391-5.474,4.034-1.547,1.46-3.932,4.813-3.736,6.331.343,2.747,4.457,1.686,4.6,5.184-.612,2.014-2.951,1.113-4.893,2.014-1.775.822-2.434,2.523-4.318,2.879-5.234.989-9.575-1.315-14.1-1.148-.21,1.961,2.239,3.1,3.452,3.736,4.107,2.159,7.453,1.862,13.24,1.731,2.966-.067,6.375.885,8.927-.868,1.614-1.1,1.528-3.539,2.879-4.891,1.627-1.621,5.379-3.272,7.772-2.879,1.308.219,3.146,1.775,3.168,2.879.046,2.615-3.7,1.781-3.743,4.609,2.437,1.46,8.87-1.6,9.211-4.034.247-1.775-2.094-2.8-2.014-4.6.139-3.016,4.238-2.964,3.745-6.047-1.979-1.556-4.044.334-6.052,0-2.827-.473-5.372-3.86-6.622-6.049,1.25-1.547,3.869-.516,5.759-.282,2.116-2.931,6.056-4.071,11.517-4.611,1.94-.189,4.526-.959,5.472.866.466,2.727-4.034,4.363-3.17,7.488,3.875.968,5.147-4.259,8.354-6.338a30.917,30.917,0,0,1,5.466-2.3c1.775-.677,3.732-2.348,5.184-2.3,1.593.043,1.877,1.352,3.454,2.014,1.417.595,3.272-.408,3.743,1.439-3.335,5.78-15.774,2.456-19,8.345.72,3.949-1.948,7.714.291,10.367,1.6,1.892,5.205.605,6.043,2.589,1.126,2.654-3.491,2.654-2.3,5.759,3.046,1.825,6.674-1.738,9.495-3.164,3.023-1.534,6.848-3.344,7.2-6.913-1.519-2.923-7.189-.662-8.054-3.736-.471-1.673,1.738-5.418,2.3-6.049,3-3.365,13.485-8.156,21.017-7.486,1.432.128,2.879,1,4.318,1.154,4.951.508,10.8-2.139,14.685,0,3.127-1.825,6.878.247,11.224-.291,3.352,1.977,2.428,6.186,7.49,8.061,1.374.51,3.088.148,4.893.575,1.337.321,2.784,1.89,4.316,2.6,2.183.989,3.854.764,4.32,2.3.458,1.506-1.586,2.48-1.441,4.036,1.243,1.024.2,2.567.866,4.027,1.243,2.667,4.376,2.471,7.479,3.745,2.183.892,6.835,3.632,6.624,5.757-.139,1.426-4.37,3.925-5.756,4.609-.983.48-5.839,2.827-7.482,2.589-2.719-.4-3.78-5.9-7.488-5.759a3.078,3.078,0,0,0-3.17,3.17c-.059,3.782,4.231,3.925,4.318,7.2.117,3.912-2.137,4.179-5.466,6.616-2.387-.968-4.392-2.326-7.488-2.589-1.84,2.189,3.025,2.973,1.439,5.759-4.624.981-8.15-1.308-12.374-2.589-1.321-.4-3.227-.241-4.318-.866-1.636-.944-2.116-3.743-3.459-5.184-1.556-1.671-4.663-4.042-7.2-4.027-3.554.007-8.7,4.429-11.515.284,1.951-6.594,11.181-1.7,17.274-4.027,2.267-.866,3.046-3.263,4.9-4.32,3.723-2.122,9.773-2.419,9.211-6.62-.282-2.118-3.242-2.087-4.893-3.17-2.252-1.469-3.975-6.653-7.2-6.906-1.656-.132-2.849,1.272-4.609,1.439-3.721.349-7.866-1.5-11.224,0-1.562.894-.508,2.326-1.729,4.027-1,1.4-3.374,1.788-4.318,3.17-1.107,1.621-.881,3.634-2.306,4.893-2.363,2.094-7.362,2.428-10.359,3.452-1.337.458-3.025,2.029-4.32,2.022-2.376-.015-3.394-3.2-6.047-2.022-.232,3.083,3.257,4.333,5.468,5.759,2.391,1.541,4.906,3.075,5.759,5.757-2.343,4.973-6.08-.26-9.788-.282-4.084-.03-10.046,7.779-13.529,1.439.866-3.359,4.565-3.882,5.468-7.2-4.064.692-7.605,4.116-12.381,5.184-2.007.443-3.962.334-5.759.857-3.446,1.011-5.85,3.556-9.493,4.9-1.426.523-3.127.362-4.609.857a76.97,76.97,0,0,0-11.224,5.184c-3.665,1.985-7.8,4.071-10.076,6.047-1.23,1.061-4.429,4.843-4.32,6.043.145,1.716,3.374,2.283,3.454,4.034-.074,1.061-1.868,3.352-.575,4.893,1.178,1.4,3.541.269,6.043.575,4.4.545,7.275,4.179,10.649,6.049a29.78,29.78,0,0,0,9.219,3.452c3.953.495,8.382-1.156,8.918,2.014.525,3.046-3.721,4.136-4.027,6.049,2.131,2.812-1.447,4.157-1.439,6.622.007,2,2.456,4.995,4.6,5.175,2.9.247,7.145-2.855,8.354-5.756,1.43-3.454.82-8.135,3.452-10.652,13.411.371,24.762-6.091,23.9-19.86-.087-1.361-.857-3.112-.575-4.609.421-2.226,4.246-4.094,3.739-6.906,3.756-1.157,3.6-7.184,7.486-8.063,3.259-.733,6.943,2.3,11.224,2.014,1.4-.093,3.207-1.345,4.611-1.148,2.812.391,4.507,3.86,6.622,5.468,1.868,1.43,3.838.974,4.318,2.877-.56,3.229-2.827,3.309-2.6,6.331.213,2.639,2.951,4.639,4.318,4.9,2.1.391,5.1-.736,7.2-1.731,3.854-1.825,7.154-7.321,10.367-6.622,2.536.553,4.522,8.614,4.893,11.515.4,3.111-.421,5.49-.284,8.354.371,4.856,6.485,4.361,9.5,6.906.909.77,1.265,2.74,2.02,3.743,1.462,1.948,3.229,1.948,3.454,4.027.538,4.973-4.507,5.394-4.036,10.942-1.039,2.15-3.665,2.02-3.452,4.893.334,4.544,6.863,1.061,8.636,4.609.959,1.905-.158,3.322-.864,6.041,2.23,2.66,2.215,6.906-1.725,6.913C483.5,380.512,482.844,377.938,480.421,377.344Zm-311.2-7.481c1.358-1.4-.575-4.348-2.6-3.17C166.43,367.747,167,370.292,169.222,369.862Zm200.945,26.194c-1.2-1.17-5.11-.838-7.779-.575-1.883.191-4.12.59-4.318,2.014C361.065,398.87,369.23,399.857,370.167,396.056Zm-14.976-4.893a3.53,3.53,0,0,0-1.148-6.047c-.946-.25-2.2.7-3.745.579-1.627-.124-3.255-1.614-4.6-1.729a6.918,6.918,0,0,0-5.474,2.014c-.087,1.723,1.267,2,1.156,3.743-2.8,2-1.315,8.688,1.441,8.929,2.923.256,4.433-7.393,8.345-8.063C352.581,390.341,353.308,391.4,355.191,391.163Zm-4.027,11.515c-4.092-1.454-7.874.99-11.224,1.439-2,.269-5.642-.406-5.184,2.589.371,2.443,4.144,1.556,6.334.866C345.64,406.13,348.51,404.9,351.164,402.678ZM338.5,380.8c5.737-2.443-1.133-9.966-3.743-10.652-4.667-1.219-11.3,3.424-16.7,4.9-3.04.827-5.932.9-6.622,3.459,2.725,4.509,8.113-.987,12.088-.291,2.016.356,3.192,3.112,5.184,3.454A60.177,60.177,0,0,0,338.5,380.8Zm-4.034,4.609c-1.193-1.4-7.649.167-9.5,1.441-1.274.879-2.137,3.025-3.452,4.609-1.36,1.636-2.881,2.9-4.029,4.318-1.039,1.278-6.87,9.69-2.3,10.651,1.948.406,5.954-3.637,6.334-5.184,1.3-5.279,3.678-9.044,7.77-11.517C331.651,388.292,334.079,388.472,334.465,385.4Zm-35.986-32.241c3.213-.117,5.388-9.61,0-8.354C294.873,345.654,294,353.324,298.479,353.163ZM282.937,569.077c.145-.43.421-.727.573-1.154C282.637,565.057,279.875,568.969,282.937,569.077ZM161.159,328.118c.065-.545-.328-.638-.284-1.154-.879-.007-1.9-.167-1.731.866A1.2,1.2,0,0,0,161.159,328.118Zm302.571-45.2c1.417.176,2.217-.276,2.014-1.721C464.464,280.291,462.6,281.476,463.731,282.914Zm-33.107-28.207a1.4,1.4,0,0,0-1.731,0v1.148C430.114,256.117,430.34,255.384,430.624,254.707Zm-109.4,22.167c.959-.618,2.428-1.454,1.723-2.879-3.179-1.491-8.551-.356-13.24-.866-2.66-3.758-7.108-4.34-7.486,1.732C307.581,279.208,315.694,272.831,321.227,276.874ZM269.69,306.526c1.636-.566,3.9-.276,4.318-2.02-1.345-1.076-2.725-2.53-4.318-2.589-2.087-.072-3.09,1.775-5.184,2.879-2.435,1.287-5.809,1.6-6.041,3.745C262.923,309.414,266.935,307.472,269.69,306.526Zm-1.439-20.732c1.84-.312,3.728.516,4.9-1.148-1.373-6.34-10.142-2.465-15.26-2.016-1.076,1.8-2.515,3.244-2.877,5.759C258.982,289.391,263.773,286.555,268.252,285.794ZM354.616,580.02c2.276-.371,1.614-5.6-1.148-4.327C351.381,576.661,352.466,580.36,354.616,580.02Z" transform="translate(-55.497 -235.063)" fill="#fff"/><path d="M105.006,283.6c-.043.516.349.61.284,1.154a1.2,1.2,0,0,1-2.016-.289C103.11,283.43,104.127,283.59,105.006,283.6Z" transform="translate(0.372 -191.697)" fill="#fff"/><path d="M103.034,292.121c-.612,1.883-2.276,2.712-4.036,3.452a7.17,7.17,0,0,1-1.439-1.439C97.684,291.4,101.572,289.387,103.034,292.121Z" transform="translate(-6.292 -183.231)" fill="#fff"/></g></g><circle cx="10" cy="10" r="10" transform="translate(136 1410)" fill="#FFBFBF"/><circle cx="10" cy="10" r="10" transform="translate(311 1343)" fill="#FFBFBF"/><circle cx="10" cy="10" r="10" transform="translate(710 1337)" fill="#FFBFBF"/><circle cx="10" cy="10" r="10" transform="translate(696 1373)" fill="#FFBFBF"/><circle cx="10" cy="10" r="10" transform="translate(676 1353)" fill="#FFBFBF"/><circle cx="10" cy="10" r="10" transform="translate(671 1274)" fill="#FFBFBF"/><circle cx="9.5" cy="9.5" r="9.5" transform="translate(1034 1455)" fill="#FFBFBF"/><circle cx="10.5" cy="10.5" r="10.5" transform="translate(1370 1736)" fill="#FFBFBF"/></g></g></svg>