<svg xmlns="http://www.w3.org/2000/svg" width="185" height="185" viewBox="0 0 185 185"><g transform="translate(-868 -427)"><g transform="translate(627 324)"><rect width="185" height="185" rx="5" transform="translate(241 103)" fill="#f7f7f8"/><g transform="translate(287 136)" fill="#e09563" stroke="#e09563" stroke-width="1"><circle cx="2" cy="2" r="2" stroke="none"/><circle cx="2" cy="2" r="1.5" fill="none"/></g><g transform="translate(395 206)" fill="#e09563" stroke="#e09563" stroke-width="1"><circle cx="4.5" cy="4.5" r="4.5" stroke="none"/><circle cx="4.5" cy="4.5" r="4" fill="none"/></g><circle cx="3.5" cy="3.5" r="3.5" transform="translate(363 126)" fill="#eee"/><circle cx="7.5" cy="7.5" r="7.5" transform="translate(258 203)" fill="#eee"/><circle cx="7.5" cy="7.5" r="7.5" transform="translate(355 258)" fill="#f0a573"/></g><g transform="matrix(0.883, 0.469, -0.469, 0.883, 952.219, 465.557)"><path d="M51.834,0H13.189A5.871,5.871,0,0,0,7.334,5.855v74.97a5.873,5.873,0,0,0,5.855,5.857H51.834a5.869,5.869,0,0,0,5.855-5.855V5.855A5.871,5.871,0,0,0,51.834,0ZM26.33,4.22H38.693a.71.71,0,0,1,0,1.419H26.33a.71.71,0,0,1,0-1.419Zm6.182,79.534a2.929,2.929,0,1,1,2.927-2.93A2.927,2.927,0,0,1,32.511,83.755Zm21.1-7.908H11.408V9.285H53.615Z" fill="#e09563"/></g></g></svg>