<svg xmlns="http://www.w3.org/2000/svg" xmlns:xlink="http://www.w3.org/1999/xlink" width="1178.368" height="1977.756" viewBox="0 0 1178.368 1977.756"><defs><radialGradient id="a" cx="0.5" cy="0.5" r="0.549" gradientTransform="matrix(-0.801, -0.526, -0.433, 0.743, 1.078, 0.553)" gradientUnits="objectBoundingBox"><stop offset="0" stop-color="#1d1d1b"/><stop offset="0.279" stop-color="#1d1d1b" stop-opacity="0.455"/><stop offset="0.6" stop-color="#1d1d1b" stop-opacity="0.11"/><stop offset="1" stop-color="#1d1d1b" stop-opacity="0"/></radialGradient><radialGradient id="b" cx="0.5" cy="0.5" r="0.549" gradientTransform="matrix(-0.801, -0.526, -0.433, 0.743, 0.932, 0.255)" xlink:href="#a"/><radialGradient id="c" cx="0.5" cy="0.5" r="1.632" gradientTransform="matrix(-0.224, 0.005, 0, 0.28, 0.612, 0.192)" xlink:href="#a"/><linearGradient id="d" x1="0.006" y1="0.133" x2="1.771" y2="1.444" gradientUnits="objectBoundingBox"><stop offset="0" stop-color="#ffd2d2"/><stop offset="0.23" stop-color="#ffd2d2"/><stop offset="0.681" stop-color="#ffd2d2"/><stop offset="1" stop-color="#ffd2d2"/></linearGradient><linearGradient id="e" x1="0.006" y1="0.133" x2="1.771" y2="1.444" gradientUnits="objectBoundingBox"><stop offset="0" stop-color="#ffbfbf"/><stop offset="0.23" stop-color="#ffbfbf"/><stop offset="0.681" stop-color="#ffbfbf"/><stop offset="1" stop-color="#ffbfbf"/></linearGradient><linearGradient id="g" x1="-0.298" y1="-0.969" x2="1.574" y2="2.478" gradientUnits="objectBoundingBox"><stop offset="0" stop-color="#fff"/><stop offset="1" stop-color="#fff"/></linearGradient><linearGradient id="h" x1="0.927" y1="1.41" x2="0.858" y2="1.262" gradientUnits="objectBoundingBox"><stop offset="0" stop-color="#fff"/><stop offset="1" stop-color="#f6f6f6"/></linearGradient></defs><g transform="translate(-734.049 -211.194)"><g transform="translate(734.049 211.194)"><g transform="translate(0 0)"><g transform="translate(0 0)"><path d="M316.946,293.488c-41.4,66.939-12.862,159.6,63.721,206.978S552.92,532,594.319,465.058s12.864-159.6-63.723-206.973S358.348,226.565,316.946,293.488Z" transform="translate(270.03 43.455)" opacity="0.15" fill="url(#a)"/><path d="M340.529,460.578c-54.249,87.711-16.858,209.126,83.492,271.2s225.7,41.317,279.948-46.394,16.858-209.123-83.495-271.2S394.778,372.884,340.529,460.578Z" transform="translate(283.549 485.874)" opacity="0.36" fill="url(#b)"/><path d="M331.324,675.734c0,55.956,202.715,101.316,452.777,101.316s452.777-45.36,452.777-101.316S1034.162,574.428,784.1,574.428,331.324,619.788,331.324,675.734Z" transform="translate(-331.324 1200.706)" opacity="0.26" fill="url(#c)" style="mix-blend-mode:multiply;isolation:isolate"/><g transform="translate(55.055 1187.421)"><g transform="translate(0 0)" style="isolation:isolate"><g transform="translate(0 27.938)"><path d="M591.758,412.773,418.926,847.4l401.587,200.06L993.346,612.84Z" transform="translate(-418.926 -412.773)" fill="#f7c39e"/></g><g transform="translate(401.587 200.067)"><path d="M357.334,926.892l205.615-27.931L735.775,464.336,530.167,492.274Z" transform="translate(-357.334 -464.336)" fill="#fab88b"/></g><g transform="translate(172.832)"><path d="M758.921,632.409,964.53,604.471,562.949,404.4,357.334,432.342Z" transform="translate(-357.334 -404.404)" fill="#fbcaa8"/></g></g></g><g transform="translate(632.799 607.835)"><g transform="translate(0 0)" style="isolation:isolate"><g transform="translate(117.35 57.453)"><path d="M224.228,379.454l54.946,382.864,373.273-72.8L597.5,306.65Z" transform="translate(-224.228 -306.65)" fill="url(#d)"/></g><g transform="translate(0 72.8)"><path d="M477.728,369.7,360.377,312.248l54.946,382.864,117.351,57.457Z" transform="translate(-360.377 -312.248)" fill="url(#e)"/></g><g transform="translate(0)"><path d="M734.893,343.147,617.548,285.694l-373.278,72.8L361.62,415.951Z" transform="translate(-244.27 -285.694)" fill="url(#d)"/></g></g></g><g transform="translate(299.247)"><g transform="translate(0)" style="isolation:isolate"><path d="M464.889,120.9,388.344,465.474l323.315,49.2,76.55-344.572Z" transform="translate(-388.344 -120.902)" fill="url(#g)"/><g transform="translate(0 344.572)"><path d="M363.949,259.4l137.24,83.777,323.315,49.2L687.264,308.608Z" transform="translate(-363.949 -259.403)" fill="url(#h)"/></g><g transform="translate(323.315 49.204)"><path d="M333.18,485.252l137.24,83.777,76.55-344.571L409.73,140.68Z" transform="translate(-333.18 -140.68)" fill="#eee"/></g></g></g></g></g></g></g></svg>