<svg xmlns="http://www.w3.org/2000/svg" xmlns:xlink="http://www.w3.org/1999/xlink" width="92" height="92" viewBox="0 0 92 92"><defs><filter id="a" x="0" y="0" width="92" height="92" filterUnits="userSpaceOnUse"><feOffset dy="3" input="SourceAlpha"/><feGaussianBlur stdDeviation="3" result="b"/><feFlood flood-opacity="0.161"/><feComposite operator="in" in2="b"/><feComposite in="SourceGraphic"/></filter></defs><g transform="translate(-152 -340)"><g transform="matrix(1, 0, 0, 1, 152, 340)" filter="url(#a)"></g><g transform="translate(162.926 583.816)"><path d="M25.8-219.4c-3.7.774-7.377,2.409-8.839,3.893-1.505,1.527-3.678,6.86-5.054,12.474a53.168,53.168,0,0,0-1.677,9.979c-.237,2.989-.237,3.054.237,3.807a13.842,13.842,0,0,0,1.936,2.129,20.382,20.382,0,0,0,10.3,4.495c2.043.3,2.022.323,3.484-1.763.624-.882.8-1.29.6-1.355-.151-.065-.817-.258-1.462-.473a22.365,22.365,0,0,1-5.377-2.559c-1.269-.817-1.5-1.054-1.5-1.57,0-1.312,1.011-1.462,2.559-.366a24.259,24.259,0,0,0,9.334,3.441,42.535,42.535,0,0,0,10.194,0,24.965,24.965,0,0,0,9.334-3.419c1.656-1.1,2.559-.989,2.559.344,0,.516-.237.753-1.505,1.57a22.365,22.365,0,0,1-5.377,2.559c-.645.215-1.312.409-1.462.473-.194.065-.021.473.6,1.355,1.462,2.086,1.441,2.065,3.484,1.763a20.382,20.382,0,0,0,10.3-4.495,13.841,13.841,0,0,0,1.936-2.129c.473-.753.473-.817.237-3.807a53.168,53.168,0,0,0-1.677-9.979c-1.376-5.57-3.376-10.56-4.925-12.28s-5.247-3.355-9.506-4.215c-2.323-.452-3.075-.387-3.484.366-.194.323-.28.645-.194.71a12.956,12.956,0,0,0,1.807.538c3.14.753,6.9,2.3,7.828,3.226a.956.956,0,0,1,.408.847.956.956,0,0,1-.516.786c-.516.344-.6.323-2.473-.624A26.647,26.647,0,0,0,35.438-216.5a26.647,26.647,0,0,0-12.474,2.817c-1.871.946-1.957.968-2.473.624a.956.956,0,0,1-.516-.787.956.956,0,0,1,.408-.848c.925-.925,4.688-2.473,7.828-3.226a12.956,12.956,0,0,0,1.807-.538c.086-.065,0-.387-.194-.71C29.416-219.921,28.492-219.986,25.8-219.4Zm4.172,16.517a4.7,4.7,0,0,1,2.13,3.713,4.7,4.7,0,0,1-1.764,3.9c-1.7,1.462-4.667.43-5.57-1.893-1.118-2.946.753-6.129,3.57-6.129a3.463,3.463,0,0,1,1.637.409Zm14.775.3a4.808,4.808,0,0,1,1.652,3.512,4.808,4.808,0,0,1-1.48,3.588c-2.194,1.828-5.054.8-5.957-2.172a4.652,4.652,0,0,1,1.936-5.226,3.833,3.833,0,0,1,3.852.3Z" fill="#8c9eff"/></g></g></svg>