<svg xmlns="http://www.w3.org/2000/svg" width="185" height="185" viewBox="0 0 185 185"><g transform="translate(-241 -103)"><rect width="185" height="185" rx="5" transform="translate(241 103)" fill="#F7F7F8"/><g transform="translate(287 149)"><path d="M11.656,322.884A2.11,2.11,0,0,0,8.671,319.9L.618,327.953A2.11,2.11,0,1,0,3.6,330.938Z" transform="translate(0 -251.91)" fill="#e09563"/><path d="M296.066,57.8a9.907,9.907,0,1,0,14.011,0A9.843,9.843,0,0,0,296.066,57.8Zm11.027,11.027a5.687,5.687,0,1,1,1.666-4.022A5.693,5.693,0,0,1,307.093,68.824Z" transform="translate(-231.303 -43.315)" fill="#e09563"/><path d="M31.067,351.438a2.111,2.111,0,0,0-2.984,0l-11.3,11.3a2.11,2.11,0,1,0,2.984,2.984l11.3-11.3A2.11,2.11,0,0,0,31.067,351.438Z" transform="translate(-12.756 -276.793)" fill="#e09563"/><path d="M100.7,2.813a2.11,2.11,0,0,0-1.469-1.469,39.49,39.49,0,0,0-24.089,1.2,46.885,46.885,0,0,0-16.683,10.4L51.894,19.51,28.123,23.224a2.111,2.111,0,0,0-1.166.593l-15.2,15.2a2.11,2.11,0,0,0,1.4,3.6l15,.631-3.759,3.759a2.11,2.11,0,0,0,0,2.984l2.194,2.194L20.036,62.231a2.11,2.11,0,0,0,.275,2.645L37.165,81.73A2.11,2.11,0,0,0,39.81,82l10.043-6.553,2.194,2.194a2.111,2.111,0,0,0,2.984,0l3.759-3.759.631,15a2.11,2.11,0,0,0,3.6,1.4l15.2-15.2a2.112,2.112,0,0,0,.593-1.166l3.713-23.771,6.561-6.562A46.888,46.888,0,0,0,99.5,26.9,39.494,39.494,0,0,0,100.7,2.813ZM38.938,77.534,24.507,63.1l5.132-7.866,7.091,7.091-.834.834a2.11,2.11,0,0,0,2.984,2.984l.834-.834L46.8,72.4ZM86.108,40.6,79.06,47.649l0,0-7.333,7.333a2.11,2.11,0,0,0,2.984,2.984l2.76-2.76L74.754,72.586,63.436,83.905l-.592-14.071,5.9-5.9a2.11,2.11,0,0,0-2.984-2.984L59.21,67.5l-.011.011-5.66,5.66-1.882-1.882-.065-.065-8.9-8.9,25.521-25.52a2.11,2.11,0,1,0-2.984-2.984L39.713,59.344l-8.9-8.9-.065-.065L28.872,48.5l5.66-5.66.01-.01,6.546-6.546A2.11,2.11,0,1,0,38.1,33.3l-5.9,5.9-14.071-.592L29.455,27.287l17.377-2.714-2.76,2.76,2.984,2.984,7.311-7.311.047-.047,7.026-7.026C67.312,10.061,81.254,1.361,96.932,5.109,100.68,20.787,91.98,34.73,86.108,40.6Z" transform="translate(-8.785 0)" fill="#e09563"/><path d="M73.172,384.4l-8.053,8.053a2.11,2.11,0,1,0,2.984,2.984l8.053-8.053a2.11,2.11,0,0,0-2.984-2.984Z" transform="translate(-50.89 -302.8)" fill="#e09563"/></g><g transform="translate(287 136)" fill="#e09563" stroke="#e09563" stroke-width="1"><circle cx="2" cy="2" r="2" stroke="none"/><circle cx="2" cy="2" r="1.5" fill="none"/></g><g transform="translate(395 206)" fill="#e09563" stroke="#e09563" stroke-width="1"><circle cx="4.5" cy="4.5" r="4.5" stroke="none"/><circle cx="4.5" cy="4.5" r="4" fill="none"/></g><circle cx="3.5" cy="3.5" r="3.5" transform="translate(363 126)" fill="#eee"/><circle cx="7.5" cy="7.5" r="7.5" transform="translate(258 203)" fill="#eee"/><circle cx="7.5" cy="7.5" r="7.5" transform="translate(355 258)" fill="#f0a573"/></g></svg>