<svg xmlns="http://www.w3.org/2000/svg" xmlns:xlink="http://www.w3.org/1999/xlink" width="92" height="92" viewBox="0 0 92 92"><defs><filter id="a" x="0" y="0" width="92" height="92" filterUnits="userSpaceOnUse"><feOffset dy="3" input="SourceAlpha"/><feGaussianBlur stdDeviation="3" result="b"/><feFlood flood-opacity="0.161"/><feComposite operator="in" in2="b"/><feComposite in="SourceGraphic"/></filter></defs><g transform="translate(-138 -497)"><g transform="translate(0 -18)"><g transform="matrix(1, 0, 0, 1, 138, 515)" filter="url(#a)"></g><path d="M17.447,26.421l-.736,10.346a2.572,2.572,0,0,0,2.055-.995L23.7,31.057l10.223,7.487c1.875,1.045,3.2.495,3.7-1.725L44.336,5.374h0c.6-2.772-1-3.856-2.829-3.176L2.064,17.3c-2.692,1.045-2.651,2.546-.458,3.226L11.69,23.663,35.115,9c1.1-.73,2.1-.326,1.28.4Z" transform="translate(162 536.999)" fill="#5ea3d8"/></g></g></svg>