<svg xmlns="http://www.w3.org/2000/svg" xmlns:xlink="http://www.w3.org/1999/xlink" width="92" height="92" viewBox="0 0 92 92"><defs><filter id="a" x="0" y="0" width="92" height="92" filterUnits="userSpaceOnUse"><feOffset dy="3" input="SourceAlpha"/><feGaussianBlur stdDeviation="3" result="b"/><feFlood flood-opacity="0.161"/><feComposite operator="in" in2="b"/><feComposite in="SourceGraphic"/></filter></defs><g transform="translate(-391 -333)"><g transform="matrix(1, 0, 0, 1, 391, 333)" filter="url(#a)"></g><g transform="translate(415 310)"><g transform="translate(0 48)"><path d="M44.535,52.284a19.035,19.035,0,0,1-5.261,1.442A9.079,9.079,0,0,0,43.29,48.68a18.246,18.246,0,0,1-5.79,2.21,9.129,9.129,0,0,0-15.793,6.243,9.4,9.4,0,0,0,.212,2.082A25.843,25.843,0,0,1,3.1,49.664a9.132,9.132,0,0,0,2.806,12.2,9.016,9.016,0,0,1-4.125-1.125v.1A9.172,9.172,0,0,0,9.1,69.814a9.113,9.113,0,0,1-2.394.3,8.071,8.071,0,0,1-1.729-.156,9.217,9.217,0,0,0,8.531,6.36,18.345,18.345,0,0,1-11.32,3.894A17.1,17.1,0,0,1,0,80.087a25.7,25.7,0,0,0,14.006,4.1c16.8,0,25.986-13.917,25.986-25.981,0-.4-.014-.793-.033-1.18A18.214,18.214,0,0,0,44.535,52.284Z" transform="translate(0 -48)" fill="#00acee"/></g></g></g></svg>