<svg xmlns="http://www.w3.org/2000/svg" xmlns:xlink="http://www.w3.org/1999/xlink" width="92" height="92" viewBox="0 0 92 92"><defs><filter id="a" x="0" y="0" width="92" height="92" filterUnits="userSpaceOnUse"><feOffset dy="3" input="SourceAlpha"/><feGaussianBlur stdDeviation="3" result="b"/><feFlood flood-opacity="0.161"/><feComposite operator="in" in2="b"/><feComposite in="SourceGraphic"/></filter></defs><g transform="translate(-381 -497)"><g transform="translate(0 8)"><g transform="matrix(1, 0, 0, 1, 381, 489)" filter="url(#a)"></g><path d="M22.287,0A21.555,21.555,0,0,0,3.578,32.262L.037,42.882a.73.73,0,0,0,.879.938L12.51,40.769A21.557,21.557,0,1,0,22.287,0ZM35.738,31.345,34.454,32.63a7.51,7.51,0,0,1-5.378,2.445h0c-2.623,0-5.452-1.5-8.406-4.452l-7.449-7.448a14.7,14.7,0,0,1-4.255-6.727,7.235,7.235,0,0,1,2.248-7.057L12.5,8.1a2.769,2.769,0,0,1,3.2-.482c1.945,1.03,3.961,4.4,4.184,4.784a2.725,2.725,0,0,1,.353,2.064,1.907,1.907,0,0,1-.868,1.134,18.01,18.01,0,0,0-1.4,1.266,1.975,1.975,0,0,0,.3,2.894l5.818,5.818a1.969,1.969,0,0,0,2.9.291,18.615,18.615,0,0,0,1.255-1.4,1.919,1.919,0,0,1,1.708-.944,3.027,3.027,0,0,1,1.481.424c.389.229,3.763,2.244,4.791,4.189a2.709,2.709,0,0,1-.484,3.2Z" transform="translate(405.001 510)" fill="#25d366"/></g></g></svg>